<?xml version="1.0" ?><!DOCTYPE svg  PUBLIC '-//W3C//DTD SVG 1.1//EN'  'http://www.w3.org/Graphics/SVG/1.1/DTD/svg11.dtd'>	<svg height="576pt" version="1.1" viewBox="0 0 275.576471 576" width="275.576471pt" xmlns="http://www.w3.org/2000/svg" xmlns:xlink="http://www.w3.org/1999/xlink">	
 	<metadata>	
  	<rdf:RDF xmlns:cc="http://creativecommons.org/ns#" xmlns:dc="http://purl.org/dc/elements/1.1/" xmlns:rdf="http://www.w3.org/1999/02/22-rdf-syntax-ns#">	
   	<cc:Work>	
    	<dc:type rdf:resource="http://purl.org/dc/dcmitype/StillImage"/>	
    	<dc:date>2022-03-01T14:41:48.237906</dc:date>	
    	<dc:format>image/svg+xml</dc:format>	
    	<dc:creator>	
     	<cc:Agent>	
      	<dc:title>Matplotlib v3.5.0, https://matplotlib.org/</dc:title>	
     	</cc:Agent>	
    	</dc:creator>	
   	</cc:Work>	
  	</rdf:RDF>	
 	</metadata>	
 	<defs>	
  	<style type="text/css">*{stroke-linejoin: round; stroke-linecap: butt}</style>	
 	</defs>	
 	<g id="figure_1">	
  	
  	<g id="axes_1">	
   	<g id="line2d_1">	
    	<path clip-path="url(#pdbf2dd363a)" d="M 78.132193 89.28  L 78.132193 92.467352  L 79.75016 94.061028  L 79.75016 95.654704  L 81.368128 97.248379  L 82.986096 97.248379  L 86.222032 100.435731  L 86.222032 103.623083  L 87.84 105.216759  L 87.84 106.810435  L 95.92984 114.778814  L 95.92984 121.153518  L 97.547807 122.747194  L 97.547807 125.934545  L 94.311872 129.121897  L 92.693904 129.121897  L 91.075936 130.715573  L 89.457968 130.715573  L 87.84 132.309249  L 86.222032 132.309249  L 84.604064 133.902925  L 82.986096 133.902925  L 73.278289 143.46498  L 73.278289 145.058656  L 71.660321 146.652332  L 71.660321 149.839684  L 73.278289 151.43336  L 73.278289 153.027036  L 74.896257 154.620711  L 74.896257 156.214387  L 76.514225 156.214387  L 78.132193 157.808063  L 87.84 157.808063  L 89.457968 156.214387  L 91.075936 156.214387  L 94.311872 153.027036  L 95.92984 153.027036  L 97.547807 151.43336  L 99.165775 151.43336  L 102.401711 154.620711  L 104.019679 154.620711  L 107.255615 157.808063  L 105.637647 159.401739  L 104.019679 159.401739  L 99.165775 164.182767  L 92.693904 164.182767  L 91.075936 165.776443  L 89.457968 165.776443  L 87.84 164.182767  L 84.604064 164.182767  L 82.986096 162.589091  L 82.986096 160.995415  L 78.132193 160.995415  L 74.896257 164.182767  L 73.278289 164.182767  L 73.278289 168.963794  L 78.132193 173.744822  L 87.84 173.744822  L 89.457968 175.338498  L 89.457968 176.932174  L 87.84 178.52585  L 86.222032 176.932174  L 79.75016 176.932174  L 79.75016 178.52585  L 74.896257 183.306877  L 74.896257 184.900553  L 71.660321 188.087905  L 71.660321 191.275257  L 70.042353 192.868933  L 70.042353 208.805692  L 71.660321 210.399368  L 71.660321 219.961423  L 73.278289 221.555099  L 73.278289 239.085534  L 74.896257 240.679209  L 74.896257 243.866561  L 76.514225 245.460237  L 76.514225 250.241265  L 78.132193 251.834941  L 78.132193 255.022292  L 79.75016 256.615968  L 79.75016 259.80332  L 82.986096 262.990672  L 82.986096 264.584348  L 84.604064 266.178024  L 84.604064 267.7717  L 87.84 270.959051  L 87.84 272.552727  L 92.693904 277.333755  L 92.693904 278.927431  L 94.311872 280.521107  L 94.311872 286.89581  L 97.547807 290.083162  L 97.547807 291.676838  L 99.165775 293.270514  L 100.783743 293.270514  L 110.491551 302.832569  L 110.491551 306.019921  L 112.109519 307.613597  L 112.109519 309.207273  L 113.727487 310.800949  L 113.727487 313.9883  L 115.345455 315.581976  L 115.345455 317.175652  L 116.963422 318.769328  L 116.963422 320.363004  L 120.199358 323.550356  L 120.199358 325.144032  L 121.817326 326.737708  L 121.817326 329.925059  L 123.435294 331.518735  L 123.435294 334.706087  L 121.817326 336.299763  L 121.817326 337.893439  L 120.199358 339.487115  L 120.199358 341.080791  L 118.58139 342.674466  L 116.963422 342.674466  L 116.963422 347.455494  L 112.109519 352.236522  L 112.109519 357.017549  L 110.491551 358.611225  L 110.491551 366.579605  L 112.109519 368.173281  L 112.109519 369.766957  L 110.491551 371.360632  L 110.491551 406.421502  L 108.873583 408.015178  L 108.873583 414.389881  L 107.255615 415.983557  L 107.255615 417.577233  L 105.637647 419.170909  L 104.019679 419.170909  L 102.401711 417.577233  L 102.401711 415.983557  L 100.783743 414.389881  L 100.783743 412.796206  L 99.165775 411.20253  L 99.165775 409.608854  L 97.547807 408.015178  L 97.547807 406.421502  L 95.92984 404.827826  L 95.92984 403.23415  L 94.311872 401.640474  L 94.311872 400.046798  L 92.693904 398.453123  L 92.693904 396.859447  L 91.075936 395.265771  L 91.075936 393.672095  L 89.457968 392.078419  L 89.457968 390.484743  L 87.84 388.891067  L 87.84 385.703715  L 86.222032 384.11004  L 86.222032 379.329012  L 81.368128 374.547984  L 81.368128 372.954308  L 79.75016 371.360632  L 79.75016 369.766957  L 78.132193 368.173281  L 78.132193 366.579605  L 76.514225 364.985929  L 76.514225 361.798577  L 74.896257 360.204901  L 74.896257 358.611225  L 73.278289 357.017549  L 73.278289 355.423874  L 71.660321 353.830198  L 71.660321 350.642846  L 70.042353 349.04917  L 70.042353 345.861818  L 68.424385 344.268142  L 68.424385 342.674466  L 65.188449 339.487115  L 65.188449 337.893439  L 63.570481 336.299763  L 63.570481 333.112411  L 61.952513 331.518735  L 61.952513 329.925059  L 60.334545 328.331383  L 60.334545 325.144032  L 58.716578 323.550356  L 58.716578 321.95668  L 55.480642 318.769328  L 55.480642 315.581976  L 52.244706 312.394625  L 52.244706 307.613597  L 50.626738 306.019921  L 50.626738 304.426245  L 49.00877 302.832569  L 49.00877 301.238893  L 47.390802 299.645217  L 47.390802 296.457866  L 44.154866 296.457866  L 44.154866 304.426245  L 45.772834 306.019921  L 45.772834 307.613597  L 47.390802 309.207273  L 47.390802 310.800949  L 49.00877 312.394625  L 49.00877 317.175652  L 52.244706 320.363004  L 52.244706 321.95668  L 53.862674 323.550356  L 53.862674 325.144032  L 57.09861 328.331383  L 57.09861 331.518735  L 58.716578 333.112411  L 58.716578 336.299763  L 60.334545 337.893439  L 60.334545 339.487115  L 61.952513 341.080791  L 61.952513 344.268142  L 65.188449 347.455494  L 65.188449 349.04917  L 66.806417 350.642846  L 66.806417 353.830198  L 68.424385 355.423874  L 68.424385 357.017549  L 70.042353 358.611225  L 70.042353 361.798577  L 73.278289 364.985929  L 73.278289 369.766957  L 74.896257 371.360632  L 74.896257 372.954308  L 78.132193 376.14166  L 78.132193 379.329012  L 82.986096 384.11004  L 82.986096 387.297391  L 84.604064 388.891067  L 84.604064 392.078419  L 86.222032 393.672095  L 86.222032 396.859447  L 87.84 398.453123  L 87.84 400.046798  L 89.457968 401.640474  L 89.457968 403.23415  L 91.075936 404.827826  L 91.075936 406.421502  L 92.693904 408.015178  L 92.693904 409.608854  L 94.311872 411.20253  L 94.311872 412.796206  L 95.92984 414.389881  L 95.92984 415.983557  L 97.547807 417.577233  L 97.547807 419.170909  L 102.401711 423.951937  L 102.401711 428.732964  L 100.783743 430.32664  L 100.783743 431.920316  L 99.165775 433.513992  L 99.165775 441.482372  L 92.693904 447.857075  L 89.457968 447.857075  L 89.457968 452.638103  L 92.693904 452.638103  L 94.311872 454.231779  L 92.693904 455.825455  L 82.986096 455.825455  L 82.986096 457.41913  L 81.368128 459.012806  L 79.75016 459.012806  L 78.132193 457.41913  L 74.896257 457.41913  L 73.278289 459.012806  L 71.660321 459.012806  L 70.042353 460.606482  L 63.570481 460.606482  L 63.570481 465.38751  L 66.806417 465.38751  L 68.424385 463.793834  L 70.042353 465.38751  L 71.660321 465.38751  L 73.278289 466.981186  L 73.278289 470.168538  L 74.896257 470.168538  L 76.514225 471.762213  L 78.132193 471.762213  L 81.368128 474.949565  L 76.514225 479.730593  L 76.514225 482.917945  L 78.132193 482.917945  L 81.368128 486.105296  L 89.457968 486.105296  L 91.075936 484.511621  L 94.311872 484.511621  L 95.92984 486.105296  L 100.783743 486.105296  L 102.401711 484.511621  L 105.637647 484.511621  L 107.255615 482.917945  L 112.109519 482.917945  L 113.727487 481.324269  L 126.67123 481.324269  L 128.289198 482.917945  L 128.289198 484.511621  L 129.907166 486.105296  L 129.907166 489.292648  L 133.143102 492.48  L 136.379037 492.48  L 136.379037 489.292648  L 134.76107 487.698972  L 134.76107 486.105296  L 133.143102 484.511621  L 133.143102 482.917945  L 134.76107 481.324269  L 136.379037 481.324269  L 136.379037 479.730593  L 137.997005 478.136917  L 139.614973 479.730593  L 139.614973 481.324269  L 154.176684 481.324269  L 155.794652 482.917945  L 165.50246 482.917945  L 167.120428 481.324269  L 176.828235 481.324269  L 178.446203 479.730593  L 180.064171 481.324269  L 180.064171 482.917945  L 184.918075 482.917945  L 186.536043 481.324269  L 193.007914 481.324269  L 194.625882 479.730593  L 202.715722 479.730593  L 204.33369 478.136917  L 205.951658 478.136917  L 207.569626 476.543241  L 210.805561 476.543241  L 210.805561 473.355889  L 209.187594 471.762213  L 205.951658 471.762213  L 202.715722 468.574862  L 204.33369 466.981186  L 204.33369 465.38751  L 205.951658 463.793834  L 205.951658 460.606482  L 204.33369 459.012806  L 204.33369 443.076047  L 202.715722 441.482372  L 202.715722 436.701344  L 201.097754 435.107668  L 201.097754 433.513992  L 199.479786 431.920316  L 199.479786 420.764585  L 197.861818 419.170909  L 197.861818 414.389881  L 196.24385 412.796206  L 196.24385 409.608854  L 194.625882 408.015178  L 194.625882 406.421502  L 193.007914 404.827826  L 193.007914 401.640474  L 191.389947 400.046798  L 191.389947 396.859447  L 193.007914 395.265771  L 194.625882 395.265771  L 196.24385 393.672095  L 201.097754 393.672095  L 202.715722 392.078419  L 210.805561 392.078419  L 212.423529 390.484743  L 214.041497 390.484743  L 215.659465 392.078419  L 215.659465 395.265771  L 217.277433 396.859447  L 217.277433 400.046798  L 218.895401 401.640474  L 218.895401 404.827826  L 220.513369 406.421502  L 220.513369 408.015178  L 222.131337 409.608854  L 222.131337 411.20253  L 225.367273 411.20253  L 228.603209 414.389881  L 228.603209 419.170909  L 233.457112 419.170909  L 236.693048 415.983557  L 236.693048 409.608854  L 238.311016 408.015178  L 238.311016 404.827826  L 235.07508 401.640474  L 235.07508 398.453123  L 233.457112 396.859447  L 233.457112 390.484743  L 230.221176 387.297391  L 231.839144 385.703715  L 231.839144 380.922688  L 230.221176 379.329012  L 230.221176 377.735336  L 231.839144 376.14166  L 231.839144 372.954308  L 228.603209 372.954308  L 225.367273 376.14166  L 225.367273 377.735336  L 223.749305 379.329012  L 218.895401 379.329012  L 217.277433 377.735336  L 218.895401 376.14166  L 218.895401 372.954308  L 220.513369 371.360632  L 220.513369 368.173281  L 222.131337 366.579605  L 223.749305 366.579605  L 223.749305 363.392253  L 222.131337 361.798577  L 222.131337 355.423874  L 218.895401 352.236522  L 218.895401 350.642846  L 215.659465 347.455494  L 215.659465 345.861818  L 214.041497 345.861818  L 210.805561 342.674466  L 210.805561 341.080791  L 207.569626 337.893439  L 210.805561 334.706087  L 212.423529 334.706087  L 214.041497 336.299763  L 218.895401 336.299763  L 218.895401 334.706087  L 220.513369 333.112411  L 222.131337 334.706087  L 225.367273 334.706087  L 225.367273 325.144032  L 222.131337 321.95668  L 222.131337 318.769328  L 220.513369 317.175652  L 218.895401 317.175652  L 217.277433 315.581976  L 217.277433 304.426245  L 218.895401 302.832569  L 218.895401 288.489486  L 220.513369 286.89581  L 220.513369 285.302134  L 222.131337 283.708458  L 226.985241 288.489486  L 230.221176 288.489486  L 231.839144 290.083162  L 235.07508 290.083162  L 236.693048 288.489486  L 236.693048 282.114783  L 230.221176 275.740079  L 230.221176 274.146403  L 233.457112 270.959051  L 233.457112 269.365375  L 235.07508 267.7717  L 235.07508 264.584348  L 236.693048 262.990672  L 236.693048 250.241265  L 233.457112 247.053913  L 233.457112 245.460237  L 230.221176 242.272885  L 230.221176 240.679209  L 228.603209 239.085534  L 228.603209 237.491858  L 226.985241 235.898182  L 228.603209 234.304506  L 228.603209 224.742451  L 226.985241 223.148775  L 225.367273 223.148775  L 218.895401 216.774071  L 217.277433 216.774071  L 209.187594 208.805692  L 207.569626 208.805692  L 201.097754 202.430988  L 201.097754 200.837312  L 199.479786 199.243636  L 199.479786 197.64996  L 194.625882 192.868933  L 194.625882 191.275257  L 193.007914 189.681581  L 191.389947 189.681581  L 186.536043 184.900553  L 183.300107 184.900553  L 181.682139 183.306877  L 181.682139 181.713202  L 180.064171 181.713202  L 178.446203 180.119526  L 178.446203 178.52585  L 165.50246 178.52585  L 163.884492 176.932174  L 163.884492 175.338498  L 162.266524 173.744822  L 155.794652 173.744822  L 154.176684 172.151146  L 149.322781 172.151146  L 144.468877 167.370119  L 142.850909 167.370119  L 137.997005 162.589091  L 136.379037 162.589091  L 134.76107 160.995415  L 133.143102 160.995415  L 131.525134 159.401739  L 128.289198 159.401739  L 126.67123 160.995415  L 125.053262 160.995415  L 125.053262 165.776443  L 123.435294 167.370119  L 121.817326 165.776443  L 120.199358 165.776443  L 118.58139 164.182767  L 120.199358 162.589091  L 120.199358 160.995415  L 125.053262 156.214387  L 126.67123 156.214387  L 128.289198 154.620711  L 128.289198 141.871304  L 121.817326 135.496601  L 120.199358 135.496601  L 115.345455 130.715573  L 112.109519 130.715573  L 110.491551 129.121897  L 110.491551 127.528221  L 108.873583 125.934545  L 108.873583 124.34087  L 104.019679 124.34087  L 102.401711 122.747194  L 102.401711 121.153518  L 100.783743 119.559842  L 100.783743 114.778814  L 99.165775 113.185138  L 99.165775 109.997787  L 94.311872 105.216759  L 95.92984 103.623083  L 95.92984 102.029407  L 97.547807 100.435731  L 104.019679 100.435731  L 105.637647 98.842055  L 107.255615 100.435731  L 113.727487 100.435731  L 113.727487 95.654704  L 100.783743 95.654704  L 99.165775 97.248379  L 97.547807 97.248379  L 92.693904 92.467352  L 91.075936 92.467352  L 89.457968 90.873676  L 87.84 90.873676  L 86.222032 89.28  L 78.132193 89.28  L 78.132193 89.28  " style="fill: none; stroke: #000000; stroke-width: 2; stroke-linecap: square"/>	
   	</g>	
  	</g>	
 	</g>	
 	<defs>	
  	<clipPath id="pdbf2dd363a">	
   	<rect height="443.52" width="213.571765" x="34.447059" y="69.12"/>	
  	</clipPath>	
 	</defs>	
	</svg>