<?xml version="1.0" ?><!DOCTYPE svg  PUBLIC '-//W3C//DTD SVG 1.1//EN'  'http://www.w3.org/Graphics/SVG/1.1/DTD/svg11.dtd'>	<svg height="576pt" version="1.1" viewBox="0 0 243 576" width="243pt" xmlns="http://www.w3.org/2000/svg" xmlns:xlink="http://www.w3.org/1999/xlink">	
 	<metadata>	
  	<rdf:RDF xmlns:cc="http://creativecommons.org/ns#" xmlns:dc="http://purl.org/dc/elements/1.1/" xmlns:rdf="http://www.w3.org/1999/02/22-rdf-syntax-ns#">	
   	<cc:Work>	
    	<dc:type rdf:resource="http://purl.org/dc/dcmitype/StillImage"/>	
    	<dc:date>2022-04-07T20:30:48.035426</dc:date>	
    	<dc:format>image/svg+xml</dc:format>	
    	<dc:creator>	
     	<cc:Agent>	
      	<dc:title>Matplotlib v3.5.0, https://matplotlib.org/</dc:title>	
     	</cc:Agent>	
    	</dc:creator>	
   	</cc:Work>	
  	</rdf:RDF>	
 	</metadata>	
 	<defs>	
  	<style type="text/css">*{stroke-linejoin: round; stroke-linecap: butt}</style>	
 	</defs>	
 	<g id="figure_1">	
  	
  	<g id="axes_1">	
   	<g id="line2d_1">	
    	<path clip-path="url(#p8d9c21b19d)" d="M 141.231719 89.28  L 140.521327 89.982439  L 139.100542 89.982439  L 138.39015 90.684878  L 137.679758 90.684878  L 136.969365 91.387317  L 136.258973 91.387317  L 135.548581 92.089756  L 134.838188 92.089756  L 134.127796 92.792195  L 133.417404 92.792195  L 131.286227 94.899512  L 130.575835 94.899512  L 123.471912 101.923902  L 123.471912 102.626341  L 121.340735 104.733659  L 121.340735 105.436098  L 119.91995 106.840976  L 119.91995 107.543415  L 118.499165 108.948293  L 118.499165 109.650732  L 117.788773 110.353171  L 117.788773 111.05561  L 116.367988 112.460488  L 116.367988 113.162927  L 115.657596 113.865366  L 115.657596 114.567805  L 114.947204 115.270244  L 114.947204 115.972683  L 114.236812 116.675122  L 114.236812 117.377561  L 113.526419 118.08  L 113.526419 119.484878  L 112.816027 120.187317  L 112.816027 120.889756  L 112.105635 121.592195  L 112.105635 122.997073  L 111.395242 123.699512  L 111.395242 125.10439  L 110.68485 125.806829  L 110.68485 126.509268  L 109.974458 127.211707  L 109.974458 128.616585  L 109.264065 129.319024  L 109.264065 130.723902  L 108.553673 131.426341  L 108.553673 133.533659  L 107.843281 134.236098  L 107.843281 135.640976  L 107.132889 136.343415  L 107.132889 138.450732  L 106.422496 139.153171  L 106.422496 141.962927  L 105.712104 142.665366  L 105.712104 145.475122  L 105.001712 146.177561  L 105.001712 148.987317  L 104.291319 149.689756  L 104.291319 157.416585  L 103.580927 158.119024  L 103.580927 169.358049  L 104.291319 170.060488  L 104.291319 180.597073  L 105.001712 181.299512  L 105.001712 185.514146  L 105.712104 186.216585  L 105.712104 189.72878  L 106.422496 190.43122  L 106.422496 194.645854  L 107.132889 195.348293  L 107.132889 197.45561  L 107.843281 198.158049  L 107.843281 200.967805  L 108.553673 201.670244  L 108.553673 203.777561  L 109.264065 204.48  L 109.264065 206.587317  L 109.974458 207.289756  L 109.974458 209.397073  L 110.68485 210.099512  L 110.68485 212.206829  L 111.395242 212.909268  L 107.843281 216.421463  L 107.132889 216.421463  L 102.870535 220.636098  L 102.160142 220.636098  L 97.187396 225.553171  L 96.477004 225.553171  L 92.925042 229.065366  L 92.21465 229.065366  L 86.531512 234.684878  L 85.821119 234.684878  L 85.821119 235.387317  L 85.110727 236.089756  L 84.400335 236.089756  L 66.640527 253.650732  L 66.640527 254.353171  L 62.378173 258.567805  L 62.378173 259.270244  L 58.826212 262.782439  L 58.826212 263.484878  L 56.695035 265.592195  L 56.695035 266.294634  L 54.563858 268.401951  L 54.563858 269.10439  L 53.143073 270.509268  L 53.143073 271.211707  L 51.722289 272.616585  L 51.722289 273.319024  L 51.011896 274.021463  L 51.011896 274.723902  L 49.591112 276.12878  L 49.591112 276.83122  L 48.88072 277.533659  L 48.88072 278.236098  L 48.170327 278.938537  L 48.170327 279.640976  L 46.749543 281.045854  L 46.749543 282.450732  L 45.328758 283.85561  L 45.328758 285.260488  L 44.618366 285.962927  L 44.618366 286.665366  L 43.907973 287.367805  L 43.907973 288.070244  L 43.197581 288.772683  L 43.197581 290.88  L 42.487189 291.582439  L 42.487189 292.284878  L 41.776796 292.987317  L 41.776796 295.094634  L 41.066404 295.797073  L 41.066404 297.90439  L 40.356012 298.606829  L 40.356012 300.011707  L 39.64562 300.714146  L 39.64562 304.92878  L 38.935227 305.63122  L 38.935227 326.001951  L 39.64562 326.70439  L 39.64562 330.919024  L 40.356012 331.621463  L 40.356012 333.72878  L 41.066404 334.43122  L 41.066404 335.836098  L 41.776796 336.538537  L 41.776796 338.645854  L 42.487189 339.348293  L 42.487189 340.753171  L 43.197581 341.45561  L 43.197581 342.860488  L 43.907973 343.562927  L 43.907973 344.967805  L 44.618366 345.670244  L 44.618366 346.372683  L 45.328758 347.075122  L 45.328758 348.48  L 46.03915 349.182439  L 46.03915 349.884878  L 46.749543 350.587317  L 46.749543 351.289756  L 47.459935 351.992195  L 47.459935 352.694634  L 48.170327 353.397073  L 48.170327 354.099512  L 48.88072 354.801951  L 48.88072 355.50439  L 50.301504 356.909268  L 50.301504 357.611707  L 51.011896 358.314146  L 51.011896 359.016585  L 52.432681 360.421463  L 52.432681 361.123902  L 53.853466 362.52878  L 53.853466 363.23122  L 56.695035 366.040976  L 56.695035 366.743415  L 61.667781 371.660488  L 61.667781 372.362927  L 64.50935 375.172683  L 65.219743 375.172683  L 70.902881 380.792195  L 71.613273 380.792195  L 73.034058 382.197073  L 73.74445 382.197073  L 75.165235 383.601951  L 75.875627 383.601951  L 78.006804 385.709268  L 78.717196 385.709268  L 79.427589 386.411707  L 80.137981 386.411707  L 80.848373 387.114146  L 81.558766 387.114146  L 82.97955 388.519024  L 83.689942 388.519024  L 84.400335 389.221463  L 85.110727 389.221463  L 85.821119 389.923902  L 86.531512 389.923902  L 87.241904 390.626341  L 87.952296 390.626341  L 88.662689 391.32878  L 90.083473 391.32878  L 90.793866 392.03122  L 91.504258 392.03122  L 92.21465 392.733659  L 92.925042 392.733659  L 93.635435 393.436098  L 94.345827 393.436098  L 95.056219 394.138537  L 96.477004 394.138537  L 97.187396 394.840976  L 98.608181 394.840976  L 99.318573 395.543415  L 101.44975 395.543415  L 102.160142 396.245854  L 104.291319 396.245854  L 105.001712 396.948293  L 106.422496 396.948293  L 107.132889 397.650732  L 109.264065 397.650732  L 109.974458 398.353171  L 113.526419 398.353171  L 114.236812 399.05561  L 117.788773 399.05561  L 118.499165 399.758049  L 142.652504 399.758049  L 143.362896 399.05561  L 147.62525 399.05561  L 148.335642 398.353171  L 151.887604 398.353171  L 152.597996 397.650732  L 154.729173 397.650732  L 155.439565 398.353171  L 155.439565 399.758049  L 156.149958 400.460488  L 156.149958 402.567805  L 156.86035 403.270244  L 156.86035 405.377561  L 157.570742 406.08  L 157.570742 408.187317  L 158.281134 408.889756  L 158.281134 410.294634  L 158.991527 410.997073  L 158.991527 413.10439  L 159.701919 413.806829  L 159.701919 416.616585  L 160.412311 417.319024  L 160.412311 418.723902  L 161.122704 419.426341  L 161.122704 421.533659  L 161.833096 422.236098  L 161.833096 425.045854  L 162.543488 425.748293  L 162.543488 427.153171  L 163.253881 427.85561  L 163.253881 429.962927  L 163.964273 430.665366  L 163.964273 432.772683  L 164.674665 433.475122  L 164.674665 435.582439  L 165.385058 436.284878  L 165.385058 439.797073  L 166.09545 440.499512  L 166.09545 444.714146  L 166.805842 445.416585  L 166.805842 451.036098  L 166.09545 451.738537  L 166.09545 455.250732  L 165.385058 455.953171  L 165.385058 458.762927  L 164.674665 459.465366  L 164.674665 460.167805  L 163.964273 460.870244  L 163.964273 462.275122  L 162.543488 463.68  L 162.543488 464.382439  L 161.833096 465.084878  L 161.833096 465.787317  L 161.122704 466.489756  L 161.122704 467.192195  L 158.281134 470.001951  L 158.281134 470.70439  L 156.149958 472.811707  L 155.439565 472.811707  L 152.597996 475.621463  L 151.887604 475.621463  L 151.177211 476.323902  L 150.466819 476.323902  L 149.756427 477.026341  L 149.046035 477.026341  L 147.62525 478.43122  L 146.914858 478.43122  L 146.204465 479.133659  L 145.494073 479.133659  L 144.783681 479.836098  L 143.362896 479.836098  L 142.652504 480.538537  L 141.231719 480.538537  L 140.521327 481.240976  L 138.39015 481.240976  L 137.679758 481.943415  L 134.838188 481.943415  L 134.127796 482.645854  L 131.286227 482.645854  L 130.575835 483.348293  L 122.051127 483.348293  L 121.340735 482.645854  L 118.499165 482.645854  L 117.788773 481.943415  L 115.657596 481.943415  L 114.947204 481.240976  L 113.526419 481.240976  L 112.816027 480.538537  L 112.105635 480.538537  L 111.395242 479.836098  L 110.68485 479.836098  L 109.974458 479.133659  L 109.264065 479.133659  L 106.422496 476.323902  L 107.132889 475.621463  L 110.68485 475.621463  L 111.395242 474.919024  L 113.526419 474.919024  L 114.236812 474.216585  L 116.367988 474.216585  L 117.078381 473.514146  L 118.499165 473.514146  L 119.209558 472.811707  L 120.630342 472.811707  L 121.340735 472.109268  L 122.051127 472.109268  L 123.471912 470.70439  L 124.182304 470.70439  L 125.603088 469.299512  L 126.313481 469.299512  L 129.15505 466.489756  L 129.15505 465.787317  L 131.286227 463.68  L 131.286227 462.275122  L 131.996619 461.572683  L 131.996619 460.870244  L 132.707012 460.167805  L 132.707012 458.060488  L 133.417404 457.358049  L 133.417404 448.92878  L 132.707012 448.226341  L 132.707012 446.119024  L 131.996619 445.416585  L 131.996619 444.011707  L 131.286227 443.309268  L 131.286227 442.606829  L 130.575835 441.90439  L 130.575835 441.201951  L 128.444658 439.094634  L 128.444658 438.392195  L 124.182304 434.177561  L 123.471912 434.177561  L 122.051127 432.772683  L 121.340735 432.772683  L 120.630342 432.070244  L 119.91995 432.070244  L 119.209558 431.367805  L 118.499165 431.367805  L 117.788773 430.665366  L 117.078381 430.665366  L 116.367988 429.962927  L 114.236812 429.962927  L 113.526419 429.260488  L 99.318573 429.260488  L 98.608181 429.962927  L 96.477004 429.962927  L 95.766612 430.665366  L 95.056219 430.665366  L 94.345827 431.367805  L 92.925042 431.367805  L 92.21465 432.070244  L 91.504258 432.070244  L 90.083473 433.475122  L 89.373081 433.475122  L 87.952296 434.88  L 87.241904 434.88  L 82.269158 439.797073  L 82.269158 440.499512  L 80.848373 441.90439  L 80.848373 442.606829  L 79.427589 444.011707  L 79.427589 444.714146  L 78.717196 445.416585  L 78.717196 446.821463  L 78.006804 447.523902  L 78.006804 448.92878  L 77.296412 449.63122  L 77.296412 452.440976  L 76.586019 453.143415  L 76.586019 460.870244  L 77.296412 461.572683  L 77.296412 464.382439  L 78.006804 465.084878  L 78.006804 466.489756  L 78.717196 467.192195  L 78.717196 468.597073  L 79.427589 469.299512  L 79.427589 470.001951  L 80.137981 470.70439  L 80.137981 471.406829  L 80.848373 472.109268  L 80.848373 472.811707  L 82.97955 474.919024  L 82.97955 475.621463  L 89.373081 481.943415  L 90.083473 481.943415  L 92.21465 484.050732  L 92.925042 484.050732  L 94.345827 485.45561  L 95.056219 485.45561  L 95.766612 486.158049  L 96.477004 486.158049  L 97.187396 486.860488  L 98.608181 486.860488  L 100.028965 488.265366  L 100.739358 488.265366  L 101.44975 488.967805  L 102.870535 488.967805  L 103.580927 489.670244  L 105.001712 489.670244  L 105.712104 490.372683  L 107.843281 490.372683  L 108.553673 491.075122  L 110.68485 491.075122  L 111.395242 491.777561  L 114.236812 491.777561  L 114.947204 492.48  L 135.548581 492.48  L 136.258973 491.777561  L 139.810935 491.777561  L 140.521327 491.075122  L 142.652504 491.075122  L 143.362896 490.372683  L 146.204465 490.372683  L 146.914858 489.670244  L 148.335642 489.670244  L 149.046035 488.967805  L 150.466819 488.967805  L 151.177211 488.265366  L 151.887604 488.265366  L 152.597996 487.562927  L 153.308388 487.562927  L 154.018781 486.860488  L 155.439565 486.860488  L 156.149958 486.158049  L 156.86035 486.158049  L 157.570742 485.45561  L 158.281134 485.45561  L 159.701919 484.050732  L 160.412311 484.050732  L 161.833096 482.645854  L 162.543488 482.645854  L 166.805842 478.43122  L 167.516234 478.43122  L 169.647411 476.323902  L 169.647411 475.621463  L 171.778588 473.514146  L 171.778588 472.811707  L 172.488981 472.109268  L 172.488981 471.406829  L 173.909765 470.001951  L 173.909765 469.299512  L 174.620157 468.597073  L 174.620157 467.192195  L 175.33055 466.489756  L 175.33055 465.084878  L 176.040942 464.382439  L 176.040942 463.68  L 176.751334 462.977561  L 176.751334 460.167805  L 177.461727 459.465366  L 177.461727 456.65561  L 178.172119 455.953171  L 178.172119 442.606829  L 177.461727 441.90439  L 177.461727 439.797073  L 176.751334 439.094634  L 176.751334 435.582439  L 176.040942 434.88  L 176.040942 432.772683  L 175.33055 432.070244  L 175.33055 429.962927  L 174.620157 429.260488  L 174.620157 426.450732  L 173.909765 425.748293  L 173.909765 424.343415  L 173.199373 423.640976  L 173.199373 420.83122  L 172.488981 420.12878  L 172.488981 418.021463  L 171.778588 417.319024  L 171.778588 415.211707  L 171.068196 414.509268  L 171.068196 411.699512  L 170.357804 410.997073  L 170.357804 408.889756  L 169.647411 408.187317  L 169.647411 406.08  L 168.937019 405.377561  L 168.937019 402.567805  L 168.226627 401.865366  L 168.226627 399.758049  L 167.516234 399.05561  L 167.516234 396.245854  L 166.805842 395.543415  L 166.805842 394.138537  L 168.226627 392.733659  L 168.937019 392.733659  L 170.357804 391.32878  L 171.778588 391.32878  L 172.488981 390.626341  L 173.199373 390.626341  L 173.909765 389.923902  L 175.33055 389.923902  L 176.751334 388.519024  L 177.461727 388.519024  L 178.172119 387.816585  L 178.882511 387.816585  L 180.303296 386.411707  L 181.013688 386.411707  L 181.724081 385.709268  L 182.434473 385.709268  L 184.56565 383.601951  L 185.276042 383.601951  L 186.696827 382.197073  L 187.407219 382.197073  L 190.248788 379.387317  L 190.95918 379.387317  L 198.773496 371.660488  L 198.773496 370.958049  L 200.904673 368.850732  L 200.904673 368.148293  L 202.325457 366.743415  L 202.325457 366.040976  L 203.746242 364.636098  L 203.746242 363.933659  L 204.456634 363.23122  L 204.456634 362.52878  L 205.167027 361.826341  L 205.167027 361.123902  L 205.877419 360.421463  L 205.877419 359.719024  L 206.587811 359.016585  L 206.587811 357.611707  L 207.298204 356.909268  L 207.298204 355.50439  L 208.008596 354.801951  L 208.008596 353.397073  L 208.718988 352.694634  L 208.718988 350.587317  L 209.42938 349.884878  L 209.42938 344.265366  L 210.139773 343.562927  L 210.139773 340.753171  L 209.42938 340.050732  L 209.42938 336.538537  L 210.139773 335.836098  L 210.139773 333.72878  L 209.42938 333.026341  L 209.42938 326.70439  L 208.718988 326.001951  L 208.718988 323.894634  L 208.008596 323.192195  L 208.008596 321.787317  L 207.298204 321.084878  L 207.298204 319.68  L 206.587811 318.977561  L 206.587811 317.572683  L 205.877419 316.870244  L 205.877419 315.465366  L 205.167027 314.762927  L 205.167027 314.060488  L 204.456634 313.358049  L 204.456634 312.65561  L 203.746242 311.953171  L 203.746242 311.250732  L 202.325457 309.845854  L 202.325457 309.143415  L 201.615065 308.440976  L 201.615065 307.738537  L 199.483888 305.63122  L 199.483888 304.92878  L 197.352711 302.821463  L 197.352711 302.119024  L 190.248788 295.094634  L 189.538396 295.094634  L 187.407219 292.987317  L 186.696827 292.987317  L 185.276042 291.582439  L 184.56565 291.582439  L 183.144865 290.177561  L 182.434473 290.177561  L 181.724081 289.475122  L 181.013688 289.475122  L 180.303296 288.772683  L 179.592904 288.772683  L 178.172119 287.367805  L 176.751334 287.367805  L 176.040942 286.665366  L 174.620157 286.665366  L 173.909765 285.962927  L 172.488981 285.962927  L 171.778588 285.260488  L 171.068196 285.260488  L 170.357804 284.558049  L 168.226627 284.558049  L 167.516234 283.85561  L 166.09545 283.85561  L 165.385058 283.153171  L 162.543488 283.153171  L 161.833096 282.450732  L 156.149958 282.450732  L 155.439565 281.748293  L 143.362896 281.748293  L 142.652504 282.450732  L 140.521327 282.450732  L 139.100542 281.045854  L 139.100542 278.938537  L 138.39015 278.236098  L 138.39015 276.12878  L 137.679758 275.426341  L 137.679758 273.319024  L 136.969365 272.616585  L 136.969365 269.806829  L 136.258973 269.10439  L 136.258973 266.997073  L 135.548581 266.294634  L 135.548581 264.889756  L 134.838188 264.187317  L 134.838188 261.377561  L 134.127796 260.675122  L 134.127796 258.567805  L 133.417404 257.865366  L 133.417404 255.758049  L 132.707012 255.05561  L 132.707012 252.948293  L 131.996619 252.245854  L 131.996619 250.138537  L 131.286227 249.436098  L 131.286227 246.626341  L 130.575835 245.923902  L 136.969365 239.601951  L 137.679758 239.601951  L 142.652504 234.684878  L 142.652504 233.982439  L 148.335642 228.362927  L 148.335642 227.660488  L 151.177211 224.850732  L 151.177211 224.148293  L 153.308388 222.040976  L 153.308388 221.338537  L 155.439565 219.23122  L 155.439565 218.52878  L 156.86035 217.123902  L 156.86035 216.421463  L 158.281134 215.016585  L 158.281134 214.314146  L 159.701919 212.909268  L 159.701919 212.206829  L 160.412311 211.50439  L 160.412311 210.801951  L 161.122704 210.099512  L 161.122704 209.397073  L 162.543488 207.992195  L 162.543488 207.289756  L 163.253881 206.587317  L 163.253881 205.884878  L 163.964273 205.182439  L 163.964273 204.48  L 164.674665 203.777561  L 164.674665 203.075122  L 165.385058 202.372683  L 165.385058 201.670244  L 166.09545 200.967805  L 166.09545 200.265366  L 166.805842 199.562927  L 166.805842 198.860488  L 167.516234 198.158049  L 167.516234 196.050732  L 168.937019 194.645854  L 168.937019 192.538537  L 169.647411 191.836098  L 169.647411 191.133659  L 170.357804 190.43122  L 170.357804 189.026341  L 171.068196 188.323902  L 171.068196 186.216585  L 171.778588 185.514146  L 171.778588 184.109268  L 172.488981 183.406829  L 172.488981 182.001951  L 173.199373 181.299512  L 173.199373 178.489756  L 173.909765 177.787317  L 173.909765 175.68  L 174.620157 174.977561  L 174.620157 170.060488  L 175.33055 169.358049  L 175.33055 148.284878  L 174.620157 147.582439  L 174.620157 142.665366  L 173.909765 141.962927  L 173.909765 140.558049  L 173.199373 139.85561  L 173.199373 137.045854  L 172.488981 136.343415  L 172.488981 134.236098  L 171.778588 133.533659  L 171.778588 132.12878  L 171.068196 131.426341  L 171.068196 129.319024  L 170.357804 128.616585  L 170.357804 127.211707  L 169.647411 126.509268  L 169.647411 125.10439  L 168.937019 124.401951  L 168.937019 123.699512  L 168.226627 122.997073  L 168.226627 121.592195  L 167.516234 120.889756  L 167.516234 119.484878  L 166.805842 118.782439  L 166.805842 118.08  L 166.09545 117.377561  L 166.09545 115.972683  L 165.385058 115.270244  L 165.385058 113.865366  L 164.674665 113.162927  L 164.674665 112.460488  L 163.964273 111.758049  L 163.964273 111.05561  L 163.253881 110.353171  L 163.253881 109.650732  L 162.543488 108.948293  L 162.543488 108.245854  L 161.833096 107.543415  L 161.833096 106.840976  L 161.122704 106.138537  L 161.122704 105.436098  L 160.412311 104.733659  L 160.412311 104.03122  L 158.991527 102.626341  L 158.991527 101.923902  L 158.281134 101.221463  L 158.281134 100.519024  L 156.86035 99.114146  L 156.86035 98.411707  L 155.439565 97.006829  L 155.439565 96.30439  L 149.046035 89.982439  L 147.62525 89.982439  L 146.914858 89.28  L 141.231719 89.28  L 141.231719 89.28  " style="fill: none; stroke: #000000; stroke-width: 2; stroke-linecap: square"/>	
   	</g>	
  	</g>	
 	</g>	
 	<defs>	
  	<clipPath id="p8d9c21b19d">	
   	<rect height="443.52" width="188.325" x="30.375" y="69.12"/>	
  	</clipPath>	
 	</defs>	
	</svg>