<?xml version="1.0" ?><!DOCTYPE svg  PUBLIC '-//W3C//DTD SVG 1.1//EN'  'http://www.w3.org/Graphics/SVG/1.1/DTD/svg11.dtd'>	<svg height="576pt" version="1.1" viewBox="0 0 666.216867 576" width="666.216867pt" xmlns="http://www.w3.org/2000/svg" xmlns:xlink="http://www.w3.org/1999/xlink">	
 	<metadata>	
  	<rdf:RDF xmlns:cc="http://creativecommons.org/ns#" xmlns:dc="http://purl.org/dc/elements/1.1/" xmlns:rdf="http://www.w3.org/1999/02/22-rdf-syntax-ns#">	
   	<cc:Work>	
    	<dc:type rdf:resource="http://purl.org/dc/dcmitype/StillImage"/>	
    	<dc:date>2022-03-01T14:53:00.566786</dc:date>	
    	<dc:format>image/svg+xml</dc:format>	
    	<dc:creator>	
     	<cc:Agent>	
      	<dc:title>Matplotlib v3.5.0, https://matplotlib.org/</dc:title>	
     	</cc:Agent>	
    	</dc:creator>	
   	</cc:Work>	
  	</rdf:RDF>	
 	</metadata>	
 	<defs>	
  	<style type="text/css">*{stroke-linejoin: round; stroke-linecap: butt}</style>	
 	</defs>	
 	<g id="figure_1">	
  	
  	<g id="axes_1">	
   	<g id="line2d_1">	
    	<path clip-path="url(#pb0c3723f8f)" d="M 304.121411 89.28  L 302.157478 91.232542  L 302.157478 93.185085  L 301.175511 94.161356  L 301.175511 96.113898  L 300.193545 97.090169  L 300.193545 99.042712  L 299.211578 100.018983  L 299.211578 101.971525  L 298.229611 102.947797  L 298.229611 104.900339  L 297.247645 105.87661  L 297.247645 108.805424  L 296.265678 109.781695  L 296.265678 111.734237  L 295.283711 112.710508  L 295.283711 115.639322  L 294.301745 116.615593  L 294.301745 119.544407  L 293.319778 120.520678  L 293.319778 122.47322  L 292.337811 123.449492  L 292.337811 126.378305  L 291.355845 127.354576  L 291.355845 130.28339  L 290.373878 131.259661  L 290.373878 134.188475  L 289.391911 135.164746  L 289.391911 138.093559  L 288.409945 139.069831  L 288.409945 141.998644  L 287.427978 142.974915  L 287.427978 145.903729  L 286.446011 146.88  L 286.446011 148.832542  L 285.464045 149.808814  L 285.464045 152.737627  L 284.482078 153.713898  L 284.482078 156.642712  L 283.500111 157.618983  L 283.500111 160.547797  L 282.518145 161.524068  L 282.518145 164.452881  L 281.536178 165.429153  L 281.536178 168.357966  L 280.554211 169.334237  L 280.554211 172.263051  L 279.572245 173.239322  L 279.572245 176.168136  L 278.590278 177.144407  L 278.590278 181.049492  L 277.608311 182.025763  L 277.608311 184.954576  L 276.626345 185.930847  L 276.626345 188.859661  L 275.644378 189.835932  L 275.644378 192.764746  L 274.662411 193.741017  L 274.662411 196.669831  L 273.680445 197.646102  L 273.680445 200.574915  L 272.698478 201.551186  L 272.698478 204.48  L 271.716511 205.456271  L 271.716511 208.385085  L 270.734545 209.361356  L 270.734545 212.290169  L 269.752578 213.266441  L 269.752578 217.171525  L 268.770611 218.147797  L 268.770611 221.07661  L 267.788645 222.052881  L 267.788645 224.981695  L 266.806678 225.957966  L 266.806678 228.88678  L 265.824711 229.863051  L 265.824711 232.791864  L 264.842745 233.768136  L 264.842745 236.696949  L 263.860778 237.67322  L 263.860778 240.602034  L 262.878811 241.578305  L 262.878811 245.48339  L 261.896845 246.459661  L 261.896845 249.388475  L 260.914878 250.364746  L 260.914878 253.293559  L 259.932911 254.269831  L 259.932911 257.198644  L 258.950945 258.174915  L 258.950945 261.103729  L 257.968978 262.08  L 257.968978 265.985085  L 256.987011 266.961356  L 256.987011 269.890169  L 256.005045 270.866441  L 256.005045 273.795254  L 255.023078 274.771525  L 255.023078 277.700339  L 254.041111 278.67661  L 254.041111 282.581695  L 253.059145 283.557966  L 253.059145 286.48678  L 252.077178 287.463051  L 252.077178 290.391864  L 251.095211 291.368136  L 251.095211 294.296949  L 250.113245 295.27322  L 250.113245 298.202034  L 249.131278 299.178305  L 249.131278 303.08339  L 248.149311 304.059661  L 248.149311 306.988475  L 247.167345 307.964746  L 247.167345 311.869831  L 246.185378 312.846102  L 246.185378 315.774915  L 245.203411 316.751186  L 245.203411 319.68  L 244.221445 320.656271  L 241.275545 317.727458  L 240.293578 317.727458  L 238.329645 315.774915  L 237.347678 315.774915  L 235.383745 313.822373  L 234.401778 313.822373  L 232.437845 311.869831  L 231.455878 311.869831  L 230.473911 310.893559  L 229.491945 310.893559  L 228.509978 309.917288  L 227.528011 309.917288  L 226.546045 308.941017  L 225.564078 308.941017  L 224.582111 307.964746  L 223.600145 307.964746  L 222.618178 306.988475  L 221.636211 306.988475  L 220.654245 306.012203  L 219.672278 306.012203  L 218.690311 305.035932  L 216.726378 305.035932  L 215.744411 304.059661  L 213.780478 304.059661  L 212.798512 303.08339  L 210.834578 303.08339  L 209.852612 302.107119  L 207.888678 302.107119  L 206.906712 301.130847  L 204.942778 301.130847  L 203.960812 300.154576  L 201.014912 300.154576  L 200.032945 299.178305  L 196.105078 299.178305  L 195.123112 298.202034  L 189.231312 298.202034  L 188.249345 297.225763  L 166.646078 297.225763  L 165.664112 298.202034  L 160.754278 298.202034  L 159.772312 299.178305  L 155.844445 299.178305  L 154.862478 300.154576  L 151.916578 300.154576  L 150.934612 301.130847  L 148.970678 301.130847  L 147.988712 302.107119  L 146.024778 302.107119  L 145.042812 303.08339  L 144.060845 303.08339  L 143.078878 304.059661  L 141.114945 304.059661  L 140.132978 305.035932  L 139.151012 305.035932  L 138.169045 306.012203  L 137.187078 306.012203  L 136.205112 306.988475  L 135.223145 306.988475  L 133.259212 308.941017  L 132.277245 308.941017  L 128.349378 312.846102  L 127.367412 312.846102  L 121.475612 318.703729  L 121.475612 319.68  L 118.529712 322.608814  L 118.529712 323.585085  L 116.565778 325.537627  L 116.565778 326.513898  L 115.583812 327.490169  L 115.583812 328.466441  L 113.619878 330.418983  L 113.619878 331.395254  L 112.637912 332.371525  L 112.637912 334.324068  L 111.655945 335.300339  L 111.655945 336.27661  L 110.673978 337.252881  L 110.673978 339.205424  L 109.692012 340.181695  L 109.692012 343.110508  L 108.710045 344.08678  L 108.710045 347.015593  L 107.728078 347.991864  L 107.728078 353.849492  L 106.746112 354.825763  L 106.746112 369.469831  L 107.728078 370.446102  L 107.728078 375.327458  L 108.710045 376.303729  L 108.710045 379.232542  L 109.692012 380.208814  L 109.692012 382.161356  L 110.673978 383.137627  L 110.673978 385.090169  L 111.655945 386.066441  L 111.655945 388.018983  L 112.637912 388.995254  L 112.637912 389.971525  L 113.619878 390.947797  L 113.619878 391.924068  L 114.601845 392.900339  L 114.601845 393.87661  L 115.583812 394.852881  L 115.583812 395.829153  L 117.547745 397.781695  L 117.547745 398.757966  L 120.493645 401.68678  L 120.493645 402.663051  L 131.295278 413.402034  L 132.277245 413.402034  L 135.223145 416.330847  L 136.205112 416.330847  L 138.169045 418.28339  L 139.151012 418.28339  L 140.132978 419.259661  L 141.114945 419.259661  L 143.078878 421.212203  L 144.060845 421.212203  L 145.042812 422.188475  L 146.024778 422.188475  L 147.006745 423.164746  L 147.988712 423.164746  L 148.970678 424.141017  L 149.952645 424.141017  L 150.934612 425.117288  L 151.916578 425.117288  L 152.898545 426.093559  L 155.844445 426.093559  L 156.826412 427.069831  L 157.808378 427.069831  L 158.790345 428.046102  L 160.754278 428.046102  L 161.736245 429.022373  L 164.682145 429.022373  L 165.664112 429.998644  L 168.610012 429.998644  L 169.591978 430.974915  L 174.501812 430.974915  L 175.483778 431.951186  L 200.032945 431.951186  L 201.014912 430.974915  L 204.942778 430.974915  L 205.924745 429.998644  L 209.852612 429.998644  L 210.834578 429.022373  L 212.798512 429.022373  L 213.780478 428.046102  L 215.744411 428.046102  L 216.726378 427.069831  L 218.690311 427.069831  L 219.672278 426.093559  L 221.636211 426.093559  L 222.618178 425.117288  L 223.600145 425.117288  L 224.582111 424.141017  L 225.564078 424.141017  L 226.546045 423.164746  L 227.528011 423.164746  L 229.491945 421.212203  L 230.473911 421.212203  L 232.437845 419.259661  L 233.419811 419.259661  L 236.365711 416.330847  L 237.347678 416.330847  L 244.221445 409.496949  L 244.221445 408.520678  L 247.167345 405.591864  L 247.167345 404.615593  L 248.149311 403.639322  L 248.149311 402.663051  L 250.113245 400.710508  L 250.113245 399.734237  L 251.095211 398.757966  L 251.095211 396.805424  L 252.077178 395.829153  L 252.077178 393.87661  L 253.059145 392.900339  L 253.059145 391.924068  L 254.041111 390.947797  L 254.041111 388.995254  L 255.023078 388.018983  L 255.023078 386.066441  L 256.005045 385.090169  L 256.005045 383.137627  L 256.987011 382.161356  L 256.987011 380.208814  L 257.968978 379.232542  L 257.968978 376.303729  L 258.950945 375.327458  L 258.950945 373.374915  L 259.932911 372.398644  L 259.932911 370.446102  L 260.914878 369.469831  L 260.914878 366.541017  L 261.896845 365.564746  L 261.896845 363.612203  L 262.878811 362.635932  L 262.878811 359.707119  L 263.860778 358.730847  L 263.860778 355.802034  L 264.842745 354.825763  L 264.842745 352.87322  L 265.824711 351.896949  L 265.824711 348.968136  L 266.806678 347.991864  L 266.806678 346.039322  L 267.788645 345.063051  L 267.788645 342.134237  L 268.770611 341.157966  L 268.770611 339.205424  L 269.752578 338.229153  L 269.752578 335.300339  L 270.734545 334.324068  L 270.734545 331.395254  L 271.716511 330.418983  L 271.716511 328.466441  L 272.698478 327.490169  L 272.698478 324.561356  L 273.680445 323.585085  L 273.680445 320.656271  L 274.662411 319.68  L 274.662411 316.751186  L 275.644378 315.774915  L 275.644378 312.846102  L 276.626345 311.869831  L 276.626345 308.941017  L 277.608311 307.964746  L 277.608311 306.012203  L 278.590278 305.035932  L 278.590278 302.107119  L 279.572245 301.130847  L 279.572245 298.202034  L 280.554211 297.225763  L 280.554211 294.296949  L 281.536178 293.320678  L 281.536178 290.391864  L 282.518145 289.415593  L 282.518145 286.48678  L 283.500111 285.510508  L 283.500111 283.557966  L 284.482078 282.581695  L 284.482078 278.67661  L 285.464045 277.700339  L 285.464045 274.771525  L 286.446011 273.795254  L 286.446011 270.866441  L 287.427978 269.890169  L 287.427978 267.937627  L 288.409945 266.961356  L 288.409945 263.056271  L 289.391911 262.08  L 289.391911 260.127458  L 290.373878 259.151186  L 290.373878 256.222373  L 291.355845 255.246102  L 291.355845 252.317288  L 292.337811 251.341017  L 292.337811 248.412203  L 293.319778 247.435932  L 293.319778 244.507119  L 294.301745 243.530847  L 294.301745 240.602034  L 295.283711 239.625763  L 295.283711 236.696949  L 296.265678 235.720678  L 296.265678 231.815593  L 297.247645 230.839322  L 297.247645 228.88678  L 298.229611 227.910508  L 298.229611 224.005424  L 299.211578 223.029153  L 299.211578 221.07661  L 300.193545 220.100339  L 300.193545 216.195254  L 301.175511 215.218983  L 301.175511 212.290169  L 302.157478 211.313898  L 302.157478 208.385085  L 303.139445 207.408814  L 303.139445 204.48  L 304.121411 203.503729  L 304.121411 200.574915  L 305.103378 199.598644  L 305.103378 196.669831  L 306.085345 195.693559  L 306.085345 192.764746  L 307.067311 191.788475  L 307.067311 188.859661  L 308.049278 187.88339  L 308.049278 184.954576  L 309.031245 183.978305  L 309.031245 181.049492  L 310.013211 180.07322  L 310.013211 176.168136  L 310.995178 175.191864  L 310.995178 172.263051  L 311.977145 171.28678  L 311.977145 168.357966  L 312.959111 167.381695  L 312.959111 164.452881  L 313.941078 163.47661  L 313.941078 160.547797  L 314.923045 159.571525  L 314.923045 156.642712  L 315.905011 155.666441  L 315.905011 152.737627  L 316.886978 151.761356  L 316.886978 147.856271  L 317.868945 146.88  L 317.868945 144.927458  L 318.850911 143.951186  L 318.850911 140.046102  L 319.832878 139.069831  L 319.832878 138.093559  L 320.814845 137.117288  L 321.796811 138.093559  L 323.760745 138.093559  L 324.742711 139.069831  L 326.706645 139.069831  L 327.688611 140.046102  L 329.652545 140.046102  L 330.634511 141.022373  L 332.598445 141.022373  L 333.580411 141.998644  L 335.544345 141.998644  L 336.526311 142.974915  L 338.490245 142.974915  L 339.472211 143.951186  L 342.418111 143.951186  L 343.400078 144.927458  L 345.364011 144.927458  L 346.345978 145.903729  L 348.309911 145.903729  L 349.291878 146.88  L 352.237778 146.88  L 353.219745 147.856271  L 355.183678 147.856271  L 356.165645 148.832542  L 358.129578 148.832542  L 359.111545 149.808814  L 362.057445 149.808814  L 363.039411 150.785085  L 365.003345 150.785085  L 365.985311 151.761356  L 367.949245 151.761356  L 368.931211 152.737627  L 371.877111 152.737627  L 372.859078 153.713898  L 374.823011 153.713898  L 375.804978 154.690169  L 378.750878 154.690169  L 379.732845 155.666441  L 381.696778 155.666441  L 382.678744 156.642712  L 384.642678 156.642712  L 385.624644 157.618983  L 388.570544 157.618983  L 389.552511 158.595254  L 392.498411 158.595254  L 393.480378 159.571525  L 395.444311 159.571525  L 396.426278 160.547797  L 398.390211 160.547797  L 399.372178 161.524068  L 402.318078 161.524068  L 403.300044 162.500339  L 406.245944 162.500339  L 407.227911 163.47661  L 409.191844 163.47661  L 410.173811 164.452881  L 413.119711 164.452881  L 414.101678 165.429153  L 416.065611 165.429153  L 417.047578 166.405424  L 419.993478 166.405424  L 420.975444 167.381695  L 423.921344 167.381695  L 424.903311 168.357966  L 427.849211 168.357966  L 428.831178 169.334237  L 431.777078 169.334237  L 432.759044 170.310508  L 434.722978 170.310508  L 435.704944 171.28678  L 438.650844 171.28678  L 439.632811 172.263051  L 442.578711 172.263051  L 443.560678 173.239322  L 446.506578 173.239322  L 447.488544 174.215593  L 450.434444 174.215593  L 451.416411 175.191864  L 454.362311 175.191864  L 455.344278 176.168136  L 458.290178 176.168136  L 459.272144 177.144407  L 462.218044 177.144407  L 463.200011 178.120678  L 467.127878 178.120678  L 468.109844 179.096949  L 471.055744 179.096949  L 472.037711 180.07322  L 474.983611 180.07322  L 475.965578 181.049492  L 479.893444 181.049492  L 480.875411 182.025763  L 483.821311 182.025763  L 484.803278 183.002034  L 488.731144 183.002034  L 489.713111 183.978305  L 493.640978 183.978305  L 494.622944 184.954576  L 498.550811 184.954576  L 499.532778 185.930847  L 503.460644 185.930847  L 504.442611 186.907119  L 508.370478 186.907119  L 509.352444 187.88339  L 514.262278 187.88339  L 515.244244 188.859661  L 521.136044 188.859661  L 522.118011 189.835932  L 528.009811 189.835932  L 528.991778 190.812203  L 531.937678 190.812203  L 532.919644 191.788475  L 532.919644 193.741017  L 531.937678 194.717288  L 531.937678 199.598644  L 530.955711 200.574915  L 530.955711 205.456271  L 529.973744 206.432542  L 529.973744 211.313898  L 528.991778 212.290169  L 528.991778 217.171525  L 528.009811 218.147797  L 528.009811 223.029153  L 527.027844 224.005424  L 527.027844 228.88678  L 526.045878 229.863051  L 526.045878 234.744407  L 525.063911 235.720678  L 525.063911 241.578305  L 524.081944 242.554576  L 524.081944 247.435932  L 523.099978 248.412203  L 523.099978 252.317288  L 522.118011 253.293559  L 522.118011 259.151186  L 521.136044 260.127458  L 521.136044 265.008814  L 520.154078 265.985085  L 520.154078 270.866441  L 519.172111 271.842712  L 519.172111 276.724068  L 518.190144 277.700339  L 518.190144 282.581695  L 517.208178 283.557966  L 517.208178 288.439322  L 516.226211 289.415593  L 516.226211 294.296949  L 515.244244 295.27322  L 515.244244 300.154576  L 514.262278 301.130847  L 514.262278 306.012203  L 513.280311 306.988475  L 513.280311 311.869831  L 512.298344 312.846102  L 512.298344 317.727458  L 511.316378 318.703729  L 511.316378 323.585085  L 510.334411 324.561356  L 510.334411 329.442712  L 509.352444 330.418983  L 509.352444 335.300339  L 508.370478 336.27661  L 508.370478 341.157966  L 507.388511 342.134237  L 507.388511 347.015593  L 506.406544 347.991864  L 506.406544 352.87322  L 505.424578 353.849492  L 505.424578 359.707119  L 504.442611 360.68339  L 504.442611 364.588475  L 503.460644 365.564746  L 503.460644 370.446102  L 502.478678 371.422373  L 502.478678 377.28  L 501.496711 378.256271  L 501.496711 383.137627  L 500.514744 384.113898  L 500.514744 388.995254  L 498.550811 390.947797  L 495.604911 388.018983  L 494.622944 388.018983  L 491.677044 385.090169  L 490.695078 385.090169  L 487.749178 382.161356  L 486.767211 382.161356  L 484.803278 380.208814  L 483.821311 380.208814  L 482.839344 379.232542  L 481.857378 379.232542  L 480.875411 378.256271  L 479.893444 378.256271  L 477.929511 376.303729  L 476.947544 376.303729  L 475.965578 375.327458  L 474.001644 375.327458  L 473.019678 374.351186  L 472.037711 374.351186  L 471.055744 373.374915  L 469.091811 373.374915  L 468.109844 372.398644  L 467.127878 372.398644  L 466.145911 371.422373  L 464.181978 371.422373  L 463.200011 370.446102  L 460.254111 370.446102  L 459.272144 369.469831  L 456.326244 369.469831  L 455.344278 368.493559  L 448.470511 368.493559  L 447.488544 367.517288  L 436.686911 367.517288  L 435.704944 368.493559  L 429.813144 368.493559  L 428.831178 369.469831  L 425.885278 369.469831  L 424.903311 370.446102  L 421.957411 370.446102  L 420.975444 371.422373  L 419.993478 371.422373  L 419.011511 372.398644  L 417.047578 372.398644  L 416.065611 373.374915  L 414.101678 373.374915  L 413.119711 374.351186  L 412.137744 374.351186  L 411.155778 375.327458  L 410.173811 375.327458  L 408.209878 377.28  L 407.227911 377.28  L 405.263978 379.232542  L 404.282011 379.232542  L 395.444311 388.018983  L 395.444311 388.995254  L 392.498411 391.924068  L 392.498411 392.900339  L 391.516444 393.87661  L 391.516444 394.852881  L 389.552511 396.805424  L 389.552511 397.781695  L 388.570544 398.757966  L 388.570544 399.734237  L 387.588578 400.710508  L 387.588578 402.663051  L 386.606611 403.639322  L 386.606611 405.591864  L 385.624644 406.568136  L 385.624644 408.520678  L 384.642678 409.496949  L 384.642678 412.425763  L 383.660711 413.402034  L 383.660711 418.28339  L 382.678744 419.259661  L 382.678744 435.856271  L 383.660711 436.832542  L 383.660711 440.737627  L 384.642678 441.713898  L 384.642678 444.642712  L 385.624644 445.618983  L 385.624644 448.547797  L 386.606611 449.524068  L 386.606611 450.500339  L 387.588578 451.47661  L 387.588578 453.429153  L 388.570544 454.405424  L 388.570544 455.381695  L 389.552511 456.357966  L 389.552511 457.334237  L 391.516444 459.28678  L 391.516444 460.263051  L 392.498411 461.239322  L 392.498411 462.215593  L 396.426278 466.120678  L 396.426278 467.096949  L 400.354144 471.002034  L 401.336111 471.002034  L 404.282011 473.930847  L 405.263978 473.930847  L 407.227911 475.88339  L 408.209878 475.88339  L 410.173811 477.835932  L 411.155778 477.835932  L 412.137744 478.812203  L 413.119711 478.812203  L 415.083644 480.764746  L 416.065611 480.764746  L 417.047578 481.741017  L 418.029544 481.741017  L 419.011511 482.717288  L 419.993478 482.717288  L 420.975444 483.693559  L 422.939378 483.693559  L 423.921344 484.669831  L 424.903311 484.669831  L 425.885278 485.646102  L 427.849211 485.646102  L 428.831178 486.622373  L 430.795111 486.622373  L 431.777078 487.598644  L 433.741011 487.598644  L 434.722978 488.574915  L 436.686911 488.574915  L 437.668878 489.551186  L 441.596744 489.551186  L 442.578711 490.527458  L 446.506578 490.527458  L 447.488544 491.503729  L 454.362311 491.503729  L 455.344278 492.48  L 471.055744 492.48  L 472.037711 491.503729  L 477.929511 491.503729  L 478.911478 490.527458  L 482.839344 490.527458  L 483.821311 489.551186  L 485.785244 489.551186  L 486.767211 488.574915  L 488.731144 488.574915  L 489.713111 487.598644  L 491.677044 487.598644  L 492.659011 486.622373  L 493.640978 486.622373  L 494.622944 485.646102  L 495.604911 485.646102  L 496.586878 484.669831  L 497.568844 484.669831  L 498.550811 483.693559  L 499.532778 483.693559  L 501.496711 481.741017  L 502.478678 481.741017  L 512.298344 471.978305  L 512.298344 471.002034  L 514.262278 469.049492  L 514.262278 468.07322  L 515.244244 467.096949  L 515.244244 466.120678  L 516.226211 465.144407  L 516.226211 464.168136  L 517.208178 463.191864  L 517.208178 461.239322  L 518.190144 460.263051  L 518.190144 457.334237  L 519.172111 456.357966  L 519.172111 454.405424  L 520.154078 453.429153  L 520.154078 450.500339  L 521.136044 449.524068  L 521.136044 446.595254  L 522.118011 445.618983  L 522.118011 441.713898  L 523.099978 440.737627  L 523.099978 437.808814  L 524.081944 436.832542  L 524.081944 432.927458  L 525.063911 431.951186  L 525.063911 429.022373  L 526.045878 428.046102  L 526.045878 424.141017  L 527.027844 423.164746  L 527.027844 420.235932  L 528.009811 419.259661  L 528.009811 415.354576  L 528.991778 414.378305  L 528.991778 411.449492  L 529.973744 410.47322  L 529.973744 406.568136  L 530.955711 405.591864  L 530.955711 401.68678  L 531.937678 400.710508  L 531.937678 397.781695  L 532.919644 396.805424  L 532.919644 392.900339  L 533.901611 391.924068  L 533.901611 388.018983  L 534.883578 387.042712  L 534.883578 383.137627  L 535.865544 382.161356  L 535.865544 379.232542  L 536.847511 378.256271  L 536.847511 374.351186  L 537.829478 373.374915  L 537.829478 369.469831  L 538.811444 368.493559  L 538.811444 364.588475  L 539.793411 363.612203  L 539.793411 359.707119  L 540.775378 358.730847  L 540.775378 354.825763  L 541.757344 353.849492  L 541.757344 349.944407  L 542.739311 348.968136  L 542.739311 346.039322  L 543.721278 345.063051  L 543.721278 341.157966  L 544.703244 340.181695  L 544.703244 336.27661  L 545.685211 335.300339  L 545.685211 331.395254  L 546.667177 330.418983  L 546.667177 326.513898  L 547.649144 325.537627  L 547.649144 321.632542  L 548.631111 320.656271  L 548.631111 316.751186  L 549.613077 315.774915  L 549.613077 311.869831  L 550.595044 310.893559  L 550.595044 306.988475  L 551.577011 306.012203  L 551.577011 302.107119  L 552.558977 301.130847  L 552.558977 297.225763  L 553.540944 296.249492  L 553.540944 292.344407  L 554.522911 291.368136  L 554.522911 287.463051  L 555.504877 286.48678  L 555.504877 281.605424  L 556.486844 280.629153  L 556.486844 276.724068  L 557.468811 275.747797  L 557.468811 271.842712  L 558.450777 270.866441  L 558.450777 266.961356  L 559.432744 265.985085  L 559.432744 262.08  L 560.414711 261.103729  L 560.414711 256.222373  L 561.396677 255.246102  L 561.396677 251.341017  L 562.378644 250.364746  L 562.378644 246.459661  L 563.360611 245.48339  L 563.360611 240.602034  L 564.342577 239.625763  L 564.342577 235.720678  L 565.324544 234.744407  L 565.324544 229.863051  L 566.306511 228.88678  L 566.306511 224.005424  L 567.288477 223.029153  L 567.288477 219.124068  L 568.270444 218.147797  L 568.270444 213.266441  L 569.252411 212.290169  L 569.252411 207.408814  L 570.234377 206.432542  L 570.234377 201.551186  L 571.216344 200.574915  L 571.216344 195.693559  L 572.198311 194.717288  L 572.198311 188.859661  L 573.180277 187.88339  L 573.180277 183.002034  L 574.162244 182.025763  L 574.162244 175.191864  L 575.144211 174.215593  L 575.144211 166.405424  L 576.126177 165.429153  L 576.126177 157.618983  L 575.144211 156.642712  L 575.144211 155.666441  L 574.162244 154.690169  L 572.198311 154.690169  L 571.216344 153.713898  L 568.270444 153.713898  L 567.288477 152.737627  L 564.342577 152.737627  L 563.360611 151.761356  L 560.414711 151.761356  L 559.432744 150.785085  L 556.486844 150.785085  L 555.504877 149.808814  L 551.577011 149.808814  L 550.595044 148.832542  L 547.649144 148.832542  L 546.667177 147.856271  L 543.721278 147.856271  L 542.739311 146.88  L 538.811444 146.88  L 537.829478 145.903729  L 534.883578 145.903729  L 533.901611 144.927458  L 529.973744 144.927458  L 528.991778 143.951186  L 526.045878 143.951186  L 525.063911 142.974915  L 521.136044 142.974915  L 520.154078 141.998644  L 517.208178 141.998644  L 516.226211 141.022373  L 512.298344 141.022373  L 511.316378 140.046102  L 507.388511 140.046102  L 506.406544 139.069831  L 503.460644 139.069831  L 502.478678 138.093559  L 499.532778 138.093559  L 498.550811 137.117288  L 494.622944 137.117288  L 493.640978 136.141017  L 490.695078 136.141017  L 489.713111 135.164746  L 486.767211 135.164746  L 485.785244 134.188475  L 482.839344 134.188475  L 481.857378 133.212203  L 477.929511 133.212203  L 476.947544 132.235932  L 474.001644 132.235932  L 473.019678 131.259661  L 470.073778 131.259661  L 469.091811 130.28339  L 466.145911 130.28339  L 465.163944 129.307119  L 462.218044 129.307119  L 461.236078 128.330847  L 458.290178 128.330847  L 457.308211 127.354576  L 454.362311 127.354576  L 453.380344 126.378305  L 450.434444 126.378305  L 449.452478 125.402034  L 446.506578 125.402034  L 445.524611 124.425763  L 442.578711 124.425763  L 441.596744 123.449492  L 438.650844 123.449492  L 437.668878 122.47322  L 435.704944 122.47322  L 434.722978 121.496949  L 431.777078 121.496949  L 430.795111 120.520678  L 427.849211 120.520678  L 426.867244 119.544407  L 424.903311 119.544407  L 423.921344 118.568136  L 420.975444 118.568136  L 419.993478 117.591864  L 417.047578 117.591864  L 416.065611 116.615593  L 414.101678 116.615593  L 413.119711 115.639322  L 410.173811 115.639322  L 409.191844 114.663051  L 407.227911 114.663051  L 406.245944 113.68678  L 403.300044 113.68678  L 402.318078 112.710508  L 400.354144 112.710508  L 399.372178 111.734237  L 396.426278 111.734237  L 395.444311 110.757966  L 393.480378 110.757966  L 392.498411 109.781695  L 389.552511 109.781695  L 388.570544 108.805424  L 386.606611 108.805424  L 385.624644 107.829153  L 382.678744 107.829153  L 381.696778 106.852881  L 379.732845 106.852881  L 378.750878 105.87661  L 376.786945 105.87661  L 375.804978 104.900339  L 372.859078 104.900339  L 371.877111 103.924068  L 369.913178 103.924068  L 368.931211 102.947797  L 365.985311 102.947797  L 365.003345 101.971525  L 363.039411 101.971525  L 362.057445 100.995254  L 359.111545 100.995254  L 358.129578 100.018983  L 356.165645 100.018983  L 355.183678 99.042712  L 352.237778 99.042712  L 351.255811 98.066441  L 349.291878 98.066441  L 348.309911 97.090169  L 345.364011 97.090169  L 344.382045 96.113898  L 342.418111 96.113898  L 341.436145 95.137627  L 338.490245 95.137627  L 337.508278 94.161356  L 334.562378 94.161356  L 333.580411 93.185085  L 330.634511 93.185085  L 329.652545 92.208814  L 326.706645 92.208814  L 325.724678 91.232542  L 322.778778 91.232542  L 321.796811 90.256271  L 317.868945 90.256271  L 316.886978 89.28  L 304.121411 89.28  L 304.121411 89.28  " style="fill: none; stroke: #000000; stroke-width: 2; stroke-linecap: square"/>	
   	</g>	
  	</g>	
 	</g>	
 	<defs>	
  	<clipPath id="pb0c3723f8f">	
   	<rect height="443.52" width="516.318072" x="83.277108" y="69.12"/>	
  	</clipPath>	
 	</defs>	
	</svg>