<?xml version="1.0" ?><!DOCTYPE svg  PUBLIC '-//W3C//DTD SVG 1.1//EN'  'http://www.w3.org/Graphics/SVG/1.1/DTD/svg11.dtd'>	<svg height="576pt" version="1.1" viewBox="0 0 577.454545 576" width="577.454545pt" xmlns="http://www.w3.org/2000/svg" xmlns:xlink="http://www.w3.org/1999/xlink">	
 	<metadata>	
  	<rdf:RDF xmlns:cc="http://creativecommons.org/ns#" xmlns:dc="http://purl.org/dc/elements/1.1/" xmlns:rdf="http://www.w3.org/1999/02/22-rdf-syntax-ns#">	
   	<cc:Work>	
    	<dc:type rdf:resource="http://purl.org/dc/dcmitype/StillImage"/>	
    	<dc:date>2022-03-01T14:41:09.353561</dc:date>	
    	<dc:format>image/svg+xml</dc:format>	
    	<dc:creator>	
     	<cc:Agent>	
      	<dc:title>Matplotlib v3.5.0, https://matplotlib.org/</dc:title>	
     	</cc:Agent>	
    	</dc:creator>	
   	</cc:Work>	
  	</rdf:RDF>	
 	</metadata>	
 	<defs>	
  	<style type="text/css">*{stroke-linejoin: round; stroke-linecap: butt}</style>	
 	</defs>	
 	<g id="figure_1">	
  	
  	<g id="axes_1">	
   	<g id="line2d_1">	
    	<path clip-path="url(#p8cdbd50191)" d="M 408.728507 479.176447  L 407.698525 480.199797  L 406.668543 480.199797  L 405.638561 481.223147  L 404.608578 481.223147  L 403.578596 482.246497  L 402.548614 483.269848  L 402.548614 484.293198  L 402.548614 485.316548  L 402.548614 486.339898  L 402.548614 487.363249  L 403.578596 488.386599  L 404.608578 488.386599  L 405.638561 489.409949  L 406.668543 489.409949  L 407.698525 489.409949  L 408.728507 489.409949  L 409.758489 489.409949  L 409.758489 488.386599  L 410.788472 487.363249  L 411.818454 487.363249  L 412.848436 487.363249  L 413.878418 487.363249  L 414.9084 487.363249  L 415.938383 486.339898  L 415.938383 485.316548  L 415.938383 484.293198  L 415.938383 483.269848  L 415.938383 482.246497  L 415.938383 481.223147  L 414.9084 480.199797  L 413.878418 479.176447  L 412.848436 479.176447  L 411.818454 479.176447  L 410.788472 479.176447  L 409.758489 479.176447  L 408.728507 479.176447  " style="fill: none; stroke: #000000; stroke-width: 2; stroke-linecap: square"/>	
   	</g>	
   	<g id="line2d_2">	
    	<path clip-path="url(#p8cdbd50191)" d="M 395.338738 204.918579  L 394.308756 205.941929  L 393.278774 206.965279  L 393.278774 207.988629  L 393.278774 209.01198  L 393.278774 210.03533  L 393.278774 211.05868  L 393.278774 212.08203  L 393.278774 213.105381  L 393.278774 214.128731  L 394.308756 215.152081  L 395.338738 215.152081  L 396.368721 215.152081  L 397.398703 216.175431  L 398.428685 216.175431  L 399.458667 216.175431  L 400.488649 216.175431  L 401.518632 216.175431  L 402.548614 215.152081  L 403.578596 215.152081  L 404.608578 214.128731  L 405.638561 213.105381  L 405.638561 212.08203  L 405.638561 211.05868  L 405.638561 210.03533  L 405.638561 209.01198  L 405.638561 207.988629  L 405.638561 206.965279  L 404.608578 205.941929  L 403.578596 205.941929  L 402.548614 204.918579  L 401.518632 204.918579  L 400.488649 204.918579  L 399.458667 204.918579  L 398.428685 204.918579  L 397.398703 204.918579  L 396.368721 204.918579  L 395.338738 204.918579  " style="fill: none; stroke: #000000; stroke-width: 2; stroke-linecap: square"/>	
   	</g>	
   	<g id="line2d_3">	
    	<path clip-path="url(#p8cdbd50191)" d="M 427.268187 194.685076  L 426.238205 195.708426  L 425.208223 195.708426  L 424.17824 195.708426  L 423.148258 195.708426  L 422.118276 196.731777  L 421.088294 197.755127  L 420.058312 198.778477  L 419.028329 199.801827  L 419.028329 200.825178  L 419.028329 201.848528  L 417.998347 202.871878  L 417.998347 203.895228  L 417.998347 204.918579  L 417.998347 205.941929  L 417.998347 206.965279  L 419.028329 207.988629  L 419.028329 209.01198  L 419.028329 210.03533  L 419.028329 211.05868  L 420.058312 212.08203  L 421.088294 213.105381  L 422.118276 214.128731  L 423.148258 214.128731  L 424.17824 215.152081  L 425.208223 215.152081  L 426.238205 215.152081  L 427.268187 216.175431  L 428.298169 216.175431  L 429.328151 216.175431  L 430.358134 216.175431  L 431.388116 216.175431  L 432.418098 216.175431  L 433.44808 216.175431  L 434.478063 215.152081  L 435.508045 215.152081  L 436.538027 215.152081  L 437.568009 215.152081  L 438.597991 214.128731  L 439.627974 213.105381  L 440.657956 212.08203  L 441.687938 211.05868  L 441.687938 210.03533  L 442.71792 209.01198  L 442.71792 207.988629  L 442.71792 206.965279  L 442.71792 205.941929  L 442.71792 204.918579  L 442.71792 203.895228  L 442.71792 202.871878  L 442.71792 201.848528  L 441.687938 200.825178  L 441.687938 199.801827  L 440.657956 198.778477  L 440.657956 197.755127  L 439.627974 197.755127  L 438.597991 196.731777  L 437.568009 195.708426  L 436.538027 195.708426  L 435.508045 195.708426  L 434.478063 194.685076  L 433.44808 194.685076  L 432.418098 194.685076  L 431.388116 194.685076  L 430.358134 194.685076  L 429.328151 194.685076  L 428.298169 194.685076  L 427.268187 194.685076  " style="fill: none; stroke: #000000; stroke-width: 2; stroke-linecap: square"/>	
   	</g>	
   	<g id="line2d_4">	
    	<path clip-path="url(#p8cdbd50191)" d="M 324.269965 89.28  L 323.239983 90.30335  L 323.239983 91.326701  L 322.210001 92.350051  L 322.210001 93.373401  L 321.180019 94.396751  L 321.180019 95.420102  L 320.150037 96.443452  L 320.150037 97.466802  L 319.120054 98.490152  L 319.120054 99.513503  L 318.090072 100.536853  L 318.090072 101.560203  L 317.06009 102.583553  L 317.06009 103.606904  L 316.030108 104.630254  L 316.030108 105.653604  L 313.970143 107.700305  L 313.970143 108.723655  L 312.940161 109.747005  L 312.940161 110.770355  L 310.880197 112.817056  L 310.880197 113.840406  L 308.820232 115.887107  L 308.820232 116.910457  L 306.760268 118.957157  L 306.760268 119.980508  L 303.670321 123.050558  L 303.670321 124.073909  L 301.610357 126.120609  L 301.610357 127.143959  L 299.550392 129.19066  L 299.550392 130.21401  L 296.460446 133.284061  L 296.460446 134.307411  L 290.280552 140.447513  L 290.280552 141.470863  L 287.190606 144.540914  L 287.190606 145.564264  L 285.130641 147.610964  L 285.130641 148.634315  L 283.070677 150.681015  L 283.070677 151.704365  L 281.010712 153.751066  L 281.010712 154.774416  L 279.98073 155.797766  L 279.98073 156.821117  L 277.920766 158.867817  L 277.920766 159.891168  L 276.890784 160.914518  L 276.890784 161.937868  L 275.860801 162.961218  L 275.860801 163.984569  L 274.830819 165.007919  L 274.830819 166.031269  L 273.800837 167.054619  L 273.800837 168.07797  L 272.770855 169.10132  L 272.770855 171.14802  L 271.740872 172.171371  L 271.740872 174.218071  L 270.71089 175.241421  L 270.71089 176.264772  L 269.680908 177.288122  L 269.680908 178.311472  L 268.650926 179.334822  L 268.650926 181.381523  L 267.620944 182.404873  L 267.620944 183.428223  L 266.590961 184.451574  L 266.590961 186.498274  L 265.560979 187.521624  L 265.560979 188.544975  L 264.530997 189.568325  L 264.530997 191.615025  L 263.501015 192.638376  L 263.501015 194.685076  L 262.471033 195.708426  L 262.471033 197.755127  L 261.44105 198.778477  L 261.44105 200.825178  L 260.411068 201.848528  L 260.411068 203.895228  L 259.381086 204.918579  L 259.381086 206.965279  L 258.351104 207.988629  L 258.351104 212.08203  L 257.321121 213.105381  L 257.321121 216.175431  L 256.291139 217.198782  L 256.291139 222.315533  L 255.261157 223.338883  L 255.261157 228.455635  L 254.231175 229.478985  L 254.231175 235.619086  L 252.17121 237.665787  L 252.17121 239.712487  L 251.141228 240.735838  L 248.051282 240.735838  L 248.051282 242.782538  L 247.021299 243.805888  L 247.021299 248.92264  L 248.051282 249.94599  L 248.051282 255.062741  L 245.991317 257.109442  L 245.991317 259.156142  L 244.961335 260.179492  L 244.961335 262.226193  L 243.931353 263.249543  L 243.931353 264.272893  L 242.90137 265.296244  L 242.90137 267.342944  L 241.871388 268.366294  L 241.871388 270.412995  L 240.841406 271.436345  L 240.841406 274.506396  L 239.811424 275.529746  L 239.811424 278.599797  L 238.781442 279.623147  L 238.781442 284.739898  L 237.751459 285.763249  L 237.751459 307.253604  L 238.781442 308.276954  L 238.781442 310.323655  L 239.811424 311.347005  L 239.811424 313.393706  L 238.781442 314.417056  L 237.751459 314.417056  L 237.751459 319.533807  L 238.781442 320.557157  L 238.781442 321.580508  L 237.751459 322.603858  L 237.751459 324.650558  L 236.721477 325.673909  L 236.721477 327.720609  L 235.691495 328.743959  L 235.691495 329.76731  L 234.661513 330.79066  L 233.63153 329.76731  L 232.601548 329.76731  L 231.571566 328.743959  L 230.541584 328.743959  L 229.511602 327.720609  L 228.481619 327.720609  L 227.451637 326.697259  L 226.421655 326.697259  L 225.391673 325.673909  L 224.361691 325.673909  L 223.331708 324.650558  L 222.301726 324.650558  L 221.271744 323.627208  L 220.241762 323.627208  L 219.211779 322.603858  L 217.151815 322.603858  L 216.121833 321.580508  L 215.091851 321.580508  L 214.061868 320.557157  L 213.031886 320.557157  L 212.001904 319.533807  L 210.971922 319.533807  L 209.94194 318.510457  L 208.911957 318.510457  L 207.881975 317.487107  L 206.851993 317.487107  L 205.822011 316.463756  L 204.792028 316.463756  L 203.762046 315.440406  L 202.732064 315.440406  L 201.702082 314.417056  L 200.6721 314.417056  L 199.642117 313.393706  L 198.612135 313.393706  L 197.582153 312.370355  L 196.552171 312.370355  L 195.522189 311.347005  L 194.492206 311.347005  L 193.462224 310.323655  L 192.432242 310.323655  L 191.40226 309.300305  L 190.372277 309.300305  L 189.342295 308.276954  L 188.312313 308.276954  L 187.282331 307.253604  L 186.252349 307.253604  L 185.222366 306.230254  L 183.162402 306.230254  L 182.13242 305.206904  L 181.102437 305.206904  L 180.072455 304.183553  L 179.042473 304.183553  L 178.012491 303.160203  L 175.952526 303.160203  L 174.922544 302.136853  L 172.86258 302.136853  L 171.832598 301.113503  L 170.802615 301.113503  L 169.772633 300.090152  L 167.712669 300.090152  L 166.682686 299.066802  L 165.652704 299.066802  L 164.622722 298.043452  L 162.562758 298.043452  L 161.532775 297.020102  L 159.472811 297.020102  L 158.442829 295.996751  L 156.382864 295.996751  L 155.352882 294.973401  L 152.262935 294.973401  L 151.232953 293.950051  L 148.143007 293.950051  L 147.113024 292.926701  L 141.963113 292.926701  L 140.933131 291.90335  L 132.693273 291.90335  L 131.663291 290.88  L 128.573344 290.88  L 127.543362 291.90335  L 125.483398 291.90335  L 125.483398 292.926701  L 124.453416 293.950051  L 124.453416 297.020102  L 123.423433 298.043452  L 123.423433 304.183553  L 122.393451 305.206904  L 122.393451 319.533807  L 123.423433 320.557157  L 123.423433 330.79066  L 124.453416 331.81401  L 124.453416 338.977462  L 125.483398 340.000812  L 125.483398 345.117563  L 126.51338 346.140914  L 126.51338 350.234315  L 127.543362 351.257665  L 127.543362 354.327716  L 128.573344 355.351066  L 128.573344 359.444467  L 129.603327 360.467817  L 129.603327 363.537868  L 130.633309 364.561218  L 130.633309 367.631269  L 131.663291 368.654619  L 131.663291 370.70132  L 132.693273 371.72467  L 132.693273 374.794721  L 133.723256 375.818071  L 133.723256 378.888122  L 134.753238 379.911472  L 134.753238 381.958173  L 135.78322 382.981523  L 135.78322 385.028223  L 136.813202 386.051574  L 136.813202 387.074924  L 138.873167 389.121624  L 139.903149 389.121624  L 141.963113 391.168325  L 142.993096 391.168325  L 144.023078 392.191675  L 145.05306 392.191675  L 146.083042 393.215025  L 147.113024 393.215025  L 148.143007 394.238376  L 149.172989 394.238376  L 150.202971 395.261726  L 151.232953 395.261726  L 152.262935 396.285076  L 154.3229 396.285076  L 155.352882 397.308426  L 157.412847 397.308426  L 158.442829 398.331777  L 159.472811 398.331777  L 160.502793 399.355127  L 162.562758 399.355127  L 163.59274 400.378477  L 165.652704 400.378477  L 166.682686 401.401827  L 168.742651 401.401827  L 169.772633 402.425178  L 172.86258 402.425178  L 173.892562 403.448528  L 175.952526 403.448528  L 176.982509 404.471878  L 179.042473 404.471878  L 180.072455 405.495228  L 180.072455 406.518579  L 179.042473 407.541929  L 178.012491 407.541929  L 175.952526 409.588629  L 174.922544 409.588629  L 172.86258 411.63533  L 171.832598 411.63533  L 169.772633 413.68203  L 168.742651 413.68203  L 165.652704 416.752081  L 164.622722 416.752081  L 162.562758 418.798782  L 161.532775 418.798782  L 159.472811 420.845482  L 158.442829 420.845482  L 155.352882 423.915533  L 154.3229 423.915533  L 152.262935 425.962234  L 151.232953 425.962234  L 149.172989 428.008934  L 148.143007 428.008934  L 146.083042 430.055635  L 145.05306 430.055635  L 142.993096 432.102335  L 141.963113 432.102335  L 138.873167 435.172386  L 137.843184 435.172386  L 135.78322 437.219086  L 134.753238 437.219086  L 131.663291 440.289137  L 130.633309 440.289137  L 128.573344 442.335838  L 127.543362 442.335838  L 125.483398 444.382538  L 124.453416 444.382538  L 121.363469 447.452589  L 120.333487 447.452589  L 118.273522 449.499289  L 117.24354 449.499289  L 115.183576 451.54599  L 114.153593 451.54599  L 111.063647 454.616041  L 110.033665 454.616041  L 107.9737 456.662741  L 106.943718 456.662741  L 105.913736 457.686091  L 105.913736 459.732792  L 103.853771 461.779492  L 103.853771 462.802843  L 102.823789 463.826193  L 102.823789 464.849543  L 101.793807 465.872893  L 101.793807 466.896244  L 100.763825 467.919594  L 100.763825 469.966294  L 99.733842 470.989645  L 99.733842 472.012995  L 98.70386 473.036345  L 98.70386 474.059695  L 97.673878 475.083046  L 97.673878 477.129746  L 96.643896 478.153096  L 96.643896 480.199797  L 94.583931 482.246497  L 93.553949 482.246497  L 92.523967 483.269848  L 92.523967 487.363249  L 97.673878 487.363249  L 99.733842 485.316548  L 101.793807 485.316548  L 102.823789 486.339898  L 105.913736 486.339898  L 106.943718 485.316548  L 107.9737 485.316548  L 113.123611 490.433299  L 114.153593 490.433299  L 115.183576 491.45665  L 117.24354 491.45665  L 118.273522 492.48  L 129.603327 492.48  L 130.633309 491.45665  L 132.693273 491.45665  L 133.723256 490.433299  L 134.753238 490.433299  L 137.843184 487.363249  L 138.873167 487.363249  L 142.993096 483.269848  L 144.023078 483.269848  L 148.143007 479.176447  L 149.172989 479.176447  L 153.292918 475.083046  L 154.3229 475.083046  L 157.412847 472.012995  L 158.442829 472.012995  L 162.562758 467.919594  L 163.59274 467.919594  L 167.712669 463.826193  L 168.742651 463.826193  L 171.832598 460.756142  L 172.86258 460.756142  L 174.922544 458.709442  L 175.952526 459.732792  L 176.982509 459.732792  L 180.072455 462.802843  L 181.102437 462.802843  L 182.13242 463.826193  L 185.222366 463.826193  L 186.252349 464.849543  L 189.342295 464.849543  L 190.372277 465.872893  L 193.462224 465.872893  L 194.492206 466.896244  L 197.582153 466.896244  L 198.612135 467.919594  L 202.732064 467.919594  L 203.762046 468.942944  L 208.911957 468.942944  L 209.94194 469.966294  L 215.091851 469.966294  L 216.121833 470.989645  L 217.151815 470.989645  L 218.181797 472.012995  L 219.211779 472.012995  L 220.241762 473.036345  L 221.271744 473.036345  L 222.301726 474.059695  L 223.331708 474.059695  L 225.391673 476.106396  L 226.421655 476.106396  L 227.451637 477.129746  L 227.451637 479.176447  L 230.541584 482.246497  L 231.571566 482.246497  L 232.601548 483.269848  L 233.63153 483.269848  L 234.661513 484.293198  L 237.751459 484.293198  L 238.781442 485.316548  L 243.931353 485.316548  L 245.991317 487.363249  L 245.991317 488.386599  L 247.021299 489.409949  L 257.321121 489.409949  L 257.321121 486.339898  L 258.351104 485.316548  L 262.471033 485.316548  L 263.501015 484.293198  L 269.680908 484.293198  L 270.71089 483.269848  L 275.860801 483.269848  L 276.890784 482.246497  L 281.010712 482.246497  L 282.040695 481.223147  L 289.25057 481.223147  L 290.280552 480.199797  L 296.460446 480.199797  L 297.490428 481.223147  L 300.580375 481.223147  L 301.610357 482.246497  L 306.760268 482.246497  L 307.79025 483.269848  L 313.970143 483.269848  L 315.000126 484.293198  L 325.299948 484.293198  L 325.299948 483.269848  L 326.32993 482.246497  L 327.359912 483.269848  L 331.479841 483.269848  L 332.509823 484.293198  L 336.629752 484.293198  L 337.659734 485.316548  L 341.779663 485.316548  L 342.809645 486.339898  L 345.899592 486.339898  L 346.929574 487.363249  L 350.019521 487.363249  L 351.049503 488.386599  L 354.13945 488.386599  L 355.169432 489.409949  L 360.319343 489.409949  L 361.349325 490.433299  L 363.40929 490.433299  L 364.439272 489.409949  L 364.439272 488.386599  L 369.589183 483.269848  L 391.218809 483.269848  L 392.248792 482.246497  L 395.338738 482.246497  L 395.338738 480.199797  L 396.368721 479.176447  L 400.488649 479.176447  L 401.518632 478.153096  L 402.548614 478.153096  L 403.578596 477.129746  L 405.638561 477.129746  L 406.668543 476.106396  L 408.728507 476.106396  L 409.758489 475.083046  L 411.818454 475.083046  L 412.848436 474.059695  L 413.878418 474.059695  L 414.9084 473.036345  L 415.938383 473.036345  L 416.968365 472.012995  L 417.998347 472.012995  L 419.028329 470.989645  L 420.058312 470.989645  L 421.088294 469.966294  L 422.118276 469.966294  L 423.148258 468.942944  L 424.17824 468.942944  L 425.208223 467.919594  L 426.238205 467.919594  L 428.298169 465.872893  L 429.328151 465.872893  L 431.388116 463.826193  L 432.418098 463.826193  L 439.627974 456.662741  L 439.627974 449.499289  L 437.568009 447.452589  L 435.508045 447.452589  L 434.478063 446.429239  L 431.388116 446.429239  L 430.358134 445.405888  L 408.728507 445.405888  L 406.668543 443.359188  L 406.668543 441.312487  L 405.638561 440.289137  L 405.638561 438.242437  L 404.608578 437.219086  L 404.608578 435.172386  L 403.578596 434.149036  L 403.578596 433.125685  L 402.548614 432.102335  L 402.548614 431.078985  L 401.518632 430.055635  L 401.518632 429.032284  L 398.428685 425.962234  L 398.428685 424.938883  L 396.368721 422.892183  L 395.338738 422.892183  L 393.278774 420.845482  L 392.248792 420.845482  L 391.218809 419.822132  L 389.158845 419.822132  L 388.128863 418.798782  L 389.158845 417.775431  L 389.158845 414.705381  L 390.188827 413.68203  L 390.188827 410.61198  L 391.218809 409.588629  L 391.218809 407.541929  L 392.248792 406.518579  L 392.248792 404.471878  L 393.278774 403.448528  L 393.278774 400.378477  L 394.308756 399.355127  L 394.308756 396.285076  L 395.338738 395.261726  L 395.338738 392.191675  L 396.368721 391.168325  L 396.368721 388.098274  L 397.398703 387.074924  L 397.398703 384.004873  L 398.428685 382.981523  L 398.428685 372.74802  L 397.398703 371.72467  L 397.398703 368.654619  L 396.368721 367.631269  L 396.368721 364.561218  L 395.338738 363.537868  L 395.338738 362.514518  L 394.308756 361.491168  L 394.308756 360.467817  L 393.278774 359.444467  L 393.278774 358.421117  L 391.218809 356.374416  L 391.218809 355.351066  L 384.008934 348.187614  L 382.978952 348.187614  L 380.918987 346.140914  L 380.918987 345.117563  L 386.068898 340.000812  L 386.068898 338.977462  L 387.098881 337.954112  L 387.098881 336.930761  L 388.128863 335.907411  L 388.128863 328.743959  L 389.158845 327.720609  L 389.158845 323.627208  L 388.128863 322.603858  L 388.128863 306.230254  L 389.158845 305.206904  L 389.158845 301.113503  L 390.188827 300.090152  L 390.188827 295.996751  L 391.218809 294.973401  L 391.218809 291.90335  L 392.248792 290.88  L 394.308756 292.926701  L 395.338738 292.926701  L 396.368721 293.950051  L 398.428685 293.950051  L 399.458667 294.973401  L 400.488649 294.973401  L 401.518632 295.996751  L 404.608578 295.996751  L 405.638561 297.020102  L 407.698525 297.020102  L 408.728507 298.043452  L 411.818454 298.043452  L 412.848436 299.066802  L 416.968365 299.066802  L 417.998347 300.090152  L 437.568009 300.090152  L 438.597991 299.066802  L 444.777885 299.066802  L 445.807867 298.043452  L 449.927796 298.043452  L 450.957778 297.020102  L 455.077707 297.020102  L 456.107689 295.996751  L 459.197636 295.996751  L 460.227618 294.973401  L 463.317565 294.973401  L 464.347547 293.950051  L 467.437493 293.950051  L 468.467476 292.926701  L 470.52744 292.926701  L 471.557422 291.90335  L 473.617387 291.90335  L 474.647369 290.88  L 475.677351 290.88  L 476.707333 289.85665  L 478.767298 289.85665  L 479.79728 288.833299  L 481.857244 288.833299  L 482.887227 287.809949  L 483.917209 287.809949  L 484.947191 286.786599  L 485.977173 286.786599  L 487.007156 285.763249  L 488.037138 285.763249  L 489.06712 284.739898  L 490.097102 284.739898  L 491.127084 283.716548  L 492.157067 283.716548  L 495.247013 280.646497  L 496.276996 280.646497  L 498.33696 278.599797  L 498.33696 276.553096  L 499.366942 275.529746  L 499.366942 270.412995  L 496.276996 267.342944  L 495.247013 267.342944  L 494.217031 266.319594  L 492.157067 266.319594  L 491.127084 265.296244  L 487.007156 265.296244  L 485.977173 264.272893  L 480.827262 264.272893  L 479.79728 263.249543  L 472.587405 263.249543  L 471.557422 262.226193  L 464.347547 262.226193  L 463.317565 261.202843  L 457.137671 261.202843  L 456.107689 260.179492  L 450.957778 260.179492  L 449.927796 259.156142  L 446.837849 259.156142  L 445.807867 258.132792  L 444.777885 258.132792  L 443.747903 257.109442  L 440.657956 257.109442  L 439.627974 256.086091  L 437.568009 256.086091  L 436.538027 255.062741  L 434.478063 255.062741  L 433.44808 254.039391  L 431.388116 254.039391  L 430.358134 253.016041  L 429.328151 253.016041  L 428.298169 251.99269  L 427.268187 251.99269  L 426.238205 250.96934  L 425.208223 250.96934  L 424.17824 249.94599  L 423.148258 249.94599  L 422.118276 248.92264  L 421.088294 248.92264  L 420.058312 247.899289  L 419.028329 247.899289  L 417.998347 246.875939  L 416.968365 246.875939  L 415.938383 245.852589  L 414.9084 245.852589  L 413.878418 244.829239  L 412.848436 244.829239  L 411.818454 243.805888  L 410.788472 243.805888  L 409.758489 242.782538  L 408.728507 242.782538  L 407.698525 241.759188  L 406.668543 241.759188  L 405.638561 240.735838  L 403.578596 240.735838  L 402.548614 239.712487  L 400.488649 239.712487  L 398.428685 237.665787  L 396.368721 237.665787  L 395.338738 236.642437  L 394.308756 236.642437  L 393.278774 235.619086  L 391.218809 235.619086  L 390.188827 234.595736  L 388.128863 234.595736  L 385.038916 231.525685  L 385.038916 230.502335  L 380.918987 230.502335  L 379.889005 231.525685  L 373.709112 231.525685  L 370.619165 228.455635  L 369.589183 228.455635  L 367.529219 226.408934  L 366.499236 226.408934  L 364.439272 224.362234  L 363.40929 224.362234  L 361.349325 222.315533  L 360.319343 222.315533  L 358.259379 220.268832  L 357.229396 220.268832  L 356.199414 219.245482  L 355.169432 219.245482  L 354.13945 218.222132  L 353.109468 218.222132  L 352.079485 217.198782  L 351.049503 217.198782  L 350.019521 216.175431  L 348.989539 216.175431  L 347.959556 215.152081  L 346.929574 215.152081  L 345.899592 214.128731  L 344.86961 214.128731  L 343.839628 213.105381  L 341.779663 213.105381  L 340.749681 212.08203  L 338.689716 212.08203  L 337.659734 211.05868  L 335.59977 211.05868  L 334.569788 210.03533  L 332.509823 210.03533  L 331.479841 209.01198  L 329.419877 209.01198  L 328.389894 207.988629  L 325.299948 207.988629  L 324.269965 206.965279  L 319.120054 206.965279  L 318.090072 205.941929  L 318.090072 204.918579  L 319.120054 203.895228  L 319.120054 202.871878  L 320.150037 201.848528  L 320.150037 200.825178  L 321.180019 199.801827  L 321.180019 197.755127  L 322.210001 196.731777  L 322.210001 195.708426  L 323.239983 194.685076  L 323.239983 193.661726  L 324.269965 192.638376  L 324.269965 191.615025  L 325.299948 190.591675  L 325.299948 189.568325  L 326.32993 188.544975  L 326.32993 186.498274  L 327.359912 185.474924  L 327.359912 184.451574  L 328.389894 183.428223  L 328.389894 182.404873  L 329.419877 181.381523  L 329.419877 179.334822  L 330.449859 178.311472  L 330.449859 177.288122  L 331.479841 176.264772  L 331.479841 174.218071  L 332.509823 173.194721  L 332.509823 171.14802  L 333.539805 170.12467  L 333.539805 169.10132  L 334.569788 168.07797  L 334.569788 163.984569  L 335.59977 162.961218  L 335.59977 160.914518  L 336.629752 159.891168  L 336.629752 156.821117  L 337.659734 155.797766  L 337.659734 152.727716  L 338.689716 151.704365  L 338.689716 147.610964  L 339.719699 146.587614  L 339.719699 139.424162  L 340.749681 138.400812  L 340.749681 121.003858  L 339.719699 119.980508  L 339.719699 110.770355  L 338.689716 109.747005  L 338.689716 105.653604  L 337.659734 104.630254  L 337.659734 101.560203  L 336.629752 100.536853  L 336.629752 98.490152  L 335.59977 97.466802  L 335.59977 95.420102  L 334.569788 94.396751  L 334.569788 93.373401  L 332.509823 91.326701  L 332.509823 90.30335  L 331.479841 89.28  L 324.269965 89.28  L 324.269965 89.28  " style="fill: none; stroke: #000000; stroke-width: 2; stroke-linecap: square"/>	
   	</g>	
  	</g>	
 	</g>	
 	<defs>	
  	<clipPath id="p8cdbd50191">	
   	<rect height="443.52" width="447.527273" x="72.181818" y="69.12"/>	
  	</clipPath>	
 	</defs>	
	</svg>